<svg xmlns="http://www.w3.org/2000/svg" xmlns:xlink="http://www.w3.org/1999/xlink" width="43.823" height="43.823" viewBox="0 0 43.823 43.823"><defs><style>.a{fill:none;}.b{clip-path:url(#a);}.c{fill:#414141;}</style><clipPath id="a"><rect class="a" width="43.823" height="43.823"/></clipPath></defs><g class="b"><rect class="a" width="43.823" height="43.823"/><path class="a" d="M30.128,28.759V21.912a8.1,8.1,0,0,0-7.983-8.217h-.234a8.1,8.1,0,0,0-8.217,7.983q0,.116,0,.234v6.847Z"/><path class="c" d="M30.128,27.389V21.912a8.058,8.058,0,0,0-5.478-7.759v-.457a2.739,2.739,0,0,0-5.478,0v.457a8.058,8.058,0,0,0-5.478,7.759v5.478H10.956v1.369h8.217v1.369a2.739,2.739,0,0,0,5.478,0V28.759h8.217V27.389ZM20.542,13.695a1.369,1.369,0,0,1,2.739,0v.118a8.021,8.021,0,0,0-2.739,0Zm2.739,16.434a1.369,1.369,0,0,1-2.739,0V28.759h2.739Zm-8.217-2.739V21.912a6.847,6.847,0,0,1,13.695,0v5.478Z"/></g></svg>