<svg xmlns="http://www.w3.org/2000/svg" width="20" height="20" viewBox="0 0 20 20">
  <g id="Group_32395" data-name="Group 32395" transform="translate(-4233.303 -1498.799)">
    <path id="Path_85683" data-name="Path 85683" d="M27.325-460.558c-.112.009-.373.058-.584.1s-.481.108-.606.135a8.246,8.246,0,0,0-1.1.319c-.516.211-1.195.512-1.258.561a3.489,3.489,0,0,1-.382.229,8.9,8.9,0,0,0-1.235.844,15.134,15.134,0,0,0-1.424,1.4c-.054.076-.162.215-.238.314a10.877,10.877,0,0,0-1.5,2.829c-.067.22-.153.472-.189.553a1.667,1.667,0,0,0-.09.337c-.013.1-.067.4-.121.66a7.2,7.2,0,0,0-.1,1.707,7.745,7.745,0,0,0,.247,2.425,14.249,14.249,0,0,0,.485,1.464c.027.045.121.247.216.445a3.942,3.942,0,0,0,.22.427.558.558,0,0,1,.09.18,1.167,1.167,0,0,0,.112.225c.04.063.117.171.162.243s.117.175.153.234a11.061,11.061,0,0,0,1.756,1.958,10.065,10.065,0,0,0,.916.71,3.045,3.045,0,0,1,.332.2,2.527,2.527,0,0,0,.337.2,2.7,2.7,0,0,1,.355.184c.18.1.427.225.548.274a10.584,10.584,0,0,0,1.774.584c.135.023.377.072.539.112a10.362,10.362,0,0,0,2.457.112,9.669,9.669,0,0,0,3.517-.881c.139-.058.862-.462,1.177-.656a10.345,10.345,0,0,0,2.641-2.443c.148-.2.3-.413.346-.471a11.115,11.115,0,0,0,.642-1.172c.1-.211.207-.417.229-.467a7.165,7.165,0,0,0,.328-.956c.036-.126.076-.251.09-.278a13.685,13.685,0,0,0,.3-1.487,13.094,13.094,0,0,0,.027-1.415,6.8,6.8,0,0,0-.162-1.743,7.028,7.028,0,0,0-.166-.71,2.734,2.734,0,0,1-.108-.323,7.088,7.088,0,0,0-.305-.867c-.027-.045-.171-.337-.323-.647a7.4,7.4,0,0,0-.7-1.2,12.485,12.485,0,0,0-1.222-1.451,13.261,13.261,0,0,0-1.123-.948,1.415,1.415,0,0,1-.238-.153,5.78,5.78,0,0,0-.539-.342,4.646,4.646,0,0,1-.4-.243,3.745,3.745,0,0,0-.4-.2c-.184-.081-.373-.166-.418-.189a9.913,9.913,0,0,0-1.648-.517c-.184-.036-.458-.1-.606-.139a7.323,7.323,0,0,0-1.437-.081C28.053-460.568,27.437-460.568,27.325-460.558Zm2.246,1.163a7.46,7.46,0,0,1,.853.143c.135.041.359.1.494.13a7.181,7.181,0,0,1,.97.323c.049.022.337.166.647.323a8.757,8.757,0,0,1,3.346,2.951,9.677,9.677,0,0,1,.817,1.541,6.665,6.665,0,0,1,.35.988c.018.085.067.287.117.449a10.975,10.975,0,0,1,.22,2,9.651,9.651,0,0,1-.534,2.964,8.99,8.99,0,0,1-.831,1.738c-.09.157-.683.97-.764,1.047-.027.027-.171.18-.319.337a9.211,9.211,0,0,1-.808.728,5.126,5.126,0,0,1-.849.646,4.172,4.172,0,0,0-.373.225,1.5,1.5,0,0,1-.373.2.445.445,0,0,0-.18.077,3.716,3.716,0,0,1-.808.35c-.112.036-.323.1-.472.152a5.309,5.309,0,0,1-1.123.274l-.674.09a9.057,9.057,0,0,1-3.5-.4,2.969,2.969,0,0,0-.359-.116,10.063,10.063,0,0,1-1.078-.476c-.049-.031-.157-.09-.243-.135a1.3,1.3,0,0,1-.225-.139,1.053,1.053,0,0,0-.189-.126,9.354,9.354,0,0,1-1.981-1.725c-.018-.027-.13-.166-.251-.314s-.274-.359-.341-.471-.171-.256-.216-.328a10.087,10.087,0,0,1-1.006-2.345,9.718,9.718,0,0,1-.3-2.223,8.871,8.871,0,0,1,.548-3.121,12.3,12.3,0,0,1,.907-1.8,9.581,9.581,0,0,1,1.774-1.981,13.035,13.035,0,0,1,1.249-.867,3.194,3.194,0,0,0,.35-.184,5.358,5.358,0,0,1,.481-.243c.085-.031.319-.121.516-.2a5.668,5.668,0,0,1,.651-.207c.162-.036.4-.094.516-.135A9.633,9.633,0,0,1,29.571-459.4Z" transform="translate(4214.803 1959.365)" fill="#29991d"/>
    <path id="Path_85690" data-name="Path 85690" d="M296.5-394.62c-.014.023,0,.063.04.094.054.045.067.045.067-.013C296.612-394.624,296.541-394.678,296.5-394.62Z" transform="translate(3949.288 1896.404)" fill="#29991d"/>
    <path id="Path_85684" data-name="Path 85684" d="M83.689-390.76a4.259,4.259,0,0,0-.624.965c-.013.036-.072.189-.13.337a4.406,4.406,0,0,0-.157,1.8,2.543,2.543,0,0,0,.319,1.118.847.847,0,0,1,.085.238c0,.072-.27.188-.44.188a4.171,4.171,0,0,0-1.275.382,4.054,4.054,0,0,0-1.819,1.86c-.22.449-.283.79-.148.79.036,0,.085-.067.108-.148a3.871,3.871,0,0,1,1.082-1.1,4.885,4.885,0,0,1,.629-.283,2.02,2.02,0,0,1,.943-.13,2.178,2.178,0,0,1,.966.13,3.139,3.139,0,0,1,1.356.871c.27.3.409.346.552.184a.259.259,0,0,1,.135-.09,1.079,1.079,0,0,0,.256-.135c.193-.13.2-.148.229-.395a1.1,1.1,0,0,1,.359-.732,1.411,1.411,0,0,0,.225-.166c.117-.112.121-.135.121-.534,0-.481-.063-.6-.323-.6a1.033,1.033,0,0,1-.346-.09,1.072,1.072,0,0,0-.252-.09,2.412,2.412,0,0,1-.6-.319c-.063-.049-.193-.148-.287-.22a3.153,3.153,0,0,1-.9-1.3,1.92,1.92,0,0,1-.144-1.056c0-.7,0-.728.135-1.033a4.143,4.143,0,0,1,.211-.427,1.048,1.048,0,0,0,.1-.216C84.111-391.142,83.959-391.061,83.689-390.76Z" transform="translate(4156.61 1892.977)" fill="#29991d"/>
    <path id="Path_85688" data-name="Path 85688" d="M248.425-389.831a.439.439,0,0,0,.085.193.725.725,0,0,1,.121.242,2.789,2.789,0,0,0,.126.332,1.814,1.814,0,0,1,.094.853,2.234,2.234,0,0,1-.126,1.006,2.735,2.735,0,0,1-.386.768,3.262,3.262,0,0,1-1.28,1.078c-.09.036-.234.1-.323.139a3.237,3.237,0,0,1-.391.112c-.337.063-.346.081-.346.579v.44l.171.144c.319.269.364.319.454.512a.974.974,0,0,1,.094.377c0,.216.094.337.35.445a1.555,1.555,0,0,1,.274.153c.175.139.27.1.534-.189a3.088,3.088,0,0,1,.427-.391,2.99,2.99,0,0,1,.7-.4,1.782,1.782,0,0,0,.3-.108,3.313,3.313,0,0,1,1.383-.085,1.405,1.405,0,0,1,.413.094.554.554,0,0,0,.207.085,2.729,2.729,0,0,1,.7.373,2.644,2.644,0,0,0,.211.166,3.956,3.956,0,0,1,.669.818c.193.314.229.04.054-.4a4.418,4.418,0,0,0-1.41-1.832,4.588,4.588,0,0,0-1.949-.723c-.274-.045-.346-.139-.243-.315a3.782,3.782,0,0,0,.355-1.253,3.965,3.965,0,0,0-.948-3.085C248.542-389.925,248.425-389.975,248.425-389.831Z" transform="translate(3997.52 1891.885)" fill="#29991d"/>
    <path id="Path_85687" data-name="Path 85687" d="M198.361-325.788c-.584.085-1.361.4-1.361.539,0,.09.355.409.642.579.166.1.175.1.359.031a3.292,3.292,0,0,1,1.864-.018l.238.09.189-.1a1.991,1.991,0,0,0,.66-.566c0-.162-.777-.481-1.352-.557A5.207,5.207,0,0,0,198.361-325.788Z" transform="translate(4044.319 1830.676)" fill="#29991d"/>
    <path id="Path_85685" data-name="Path 85685" d="M153.157-239.4c-.085.081-.085.1-.027.62a4.217,4.217,0,0,0,.647,1.644c.314.485,1.253,1.267,1.37,1.145a3.512,3.512,0,0,0,.139-.88c0-.1-.067-.2-.27-.422a3.313,3.313,0,0,1-.629-.907.768.768,0,0,0-.09-.224,1.541,1.541,0,0,1-.117-.359.654.654,0,0,0-.476-.5c-.081-.027-.224-.076-.314-.117C153.243-239.466,153.22-239.466,153.157-239.4Z" transform="translate(4086.258 1748.18)" fill="#29991d"/>
    <path id="Path_85689" data-name="Path 85689" d="M281.466-238.8c-.391.148-.512.274-.57.579a3.277,3.277,0,0,1-.759,1.383l-.337.368.027.382c.036.449.085.593.2.593a2.161,2.161,0,0,0,.844-.6,3.768,3.768,0,0,0,1.1-2.259C282.045-238.94,281.982-238.994,281.466-238.8Z" transform="translate(3965.238 1747.654)" fill="#29991d"/>
    <path id="Path_85686" data-name="Path 85686" d="M138.632-222.184a.766.766,0,0,1-.79.049,1.146,1.146,0,0,0-.359-.117c-.2,0-.867.418-.867.543a1.087,1.087,0,0,0,.085.216,3.2,3.2,0,0,1,.023,2.053,3.212,3.212,0,0,1-.728,1.168,3.009,3.009,0,0,1-1.154.759,2.329,2.329,0,0,1-.853.144c-.566.027-.777.077-.539.126.076.013.269.063.431.112a3.935,3.935,0,0,0,1.7,0,3.268,3.268,0,0,1,.4-.09,4.218,4.218,0,0,0,.539-.234,2.694,2.694,0,0,0,.907-.665c.238-.234.5-.512.579-.615s.175-.175.211-.162a1.092,1.092,0,0,1,.233.251,4.269,4.269,0,0,0,1.446,1.208c.112.049.265.112.337.148a4.151,4.151,0,0,0,2.228.162c.157-.049.355-.1.436-.117.256-.054.112-.09-.476-.117a2.33,2.33,0,0,1-.916-.166,3.188,3.188,0,0,1-1.275-.9,2.435,2.435,0,0,1-.288-.377.434.434,0,0,0-.081-.162,2.77,2.77,0,0,1-.323-.889,3.434,3.434,0,0,1,.157-1.725c.067-.13.067-.148,0-.225a3.476,3.476,0,0,0-.768-.458A.6.6,0,0,0,138.632-222.184Z" transform="translate(4105.108 1731.766)" fill="#29991d"/>
  </g>
</svg>
