<svg xmlns="http://www.w3.org/2000/svg" width="20" height="19.997" viewBox="0 0 20 19.997">
  <g id="Group_32393" data-name="Group 32393" transform="translate(-4135.303 -1041.799)">
    <path id="Path_85604" data-name="Path 85604" d="M41.309-463.6a15.2,15.2,0,0,0-2.166.526.632.632,0,0,1-.2.076,1.261,1.261,0,0,0-.261.094c-.112.054-.337.157-.5.229s-.324.153-.36.175-.126.072-.2.112a10.705,10.705,0,0,0-3.272,2.894,13.417,13.417,0,0,0-.8,1.285c0,.009-.085.2-.184.414a6.928,6.928,0,0,0-.445,1.164,2.78,2.78,0,0,1-.108.324c-.013.018-.09.35-.171.728a6.68,6.68,0,0,0-.148,1.928,7.162,7.162,0,0,0,.108,1.775,11.41,11.41,0,0,0,.674,2.247c.058.121.157.337.22.472a10.609,10.609,0,0,0,.692,1.191c.081.108.211.283.283.387a13.866,13.866,0,0,0,1.312,1.438,10.251,10.251,0,0,0,2.351,1.573,4.647,4.647,0,0,0,.719.31.707.707,0,0,1,.193.067,9.875,9.875,0,0,0,2.121.526,17.743,17.743,0,0,0,2.674,0,11.488,11.488,0,0,0,1.335-.27,1.87,1.87,0,0,1,.328-.113,9.553,9.553,0,0,0,1.506-.6c.126-.067.288-.153.36-.189a11.529,11.529,0,0,0,1.519-1.038,10.814,10.814,0,0,0,2.027-2.252c.072-.112.166-.252.207-.314a16.965,16.965,0,0,0,.769-1.6c.049-.148.13-.4.175-.544a3.2,3.2,0,0,1,.126-.36,1.194,1.194,0,0,0,.072-.288c.018-.112.076-.413.13-.674a6.935,6.935,0,0,0,.1-1.708,7.2,7.2,0,0,0-.1-1.708c-.054-.261-.108-.558-.121-.661a1.653,1.653,0,0,0-.094-.337c-.031-.081-.117-.333-.184-.553a9.78,9.78,0,0,0-1.389-2.674c-.049-.067-.13-.18-.18-.252s-.171-.216-.27-.328-.229-.256-.292-.324-.135-.153-.162-.184a15.252,15.252,0,0,0-1.294-1.115,1.713,1.713,0,0,1-.234-.148,6.364,6.364,0,0,0-.782-.481.443.443,0,0,1-.139-.081A8.036,8.036,0,0,0,46.046-463a.594.594,0,0,1-.2-.072,7.55,7.55,0,0,0-1.393-.382,6.074,6.074,0,0,0-1.82-.153C41.979-463.613,41.385-463.609,41.309-463.6Zm2.476,1.182a10.133,10.133,0,0,1,2.063.562,14.382,14.382,0,0,1,1.393.71c.1.072.229.162.292.2a9.318,9.318,0,0,1,2.674,2.89c.063.113.135.234.157.27s.13.261.238.495a11.009,11.009,0,0,1,.548,1.528,13.86,13.86,0,0,1,.274,1.95,9.856,9.856,0,0,1-.692,3.6,11.622,11.622,0,0,1-1.137,1.991,10.732,10.732,0,0,1-1.4,1.452.269.269,0,0,0-.117.081,4.494,4.494,0,0,1-.836.593.318.318,0,0,0-.135.085,7.366,7.366,0,0,1-1.609.769.8.8,0,0,0-.184.067,8.962,8.962,0,0,1-2.575.458,6.653,6.653,0,0,1-1.371-.072,8.992,8.992,0,0,1-.939-.162c-.112-.036-.413-.126-.674-.207a5.587,5.587,0,0,1-1.146-.454,8.7,8.7,0,0,1-3.007-2.4,8.1,8.1,0,0,1-.867-1.258,11.627,11.627,0,0,1-.521-1.1,9.4,9.4,0,0,1-.616-3.294,13.644,13.644,0,0,1,.225-1.942,4.173,4.173,0,0,0,.112-.413,1.663,1.663,0,0,1,.108-.346.661.661,0,0,0,.072-.207,5.675,5.675,0,0,1,.5-1.137,8.094,8.094,0,0,1,1.609-2.2,7.133,7.133,0,0,1,.764-.7,8.968,8.968,0,0,1,4.27-1.811,3.829,3.829,0,0,0,.517-.077A17.133,17.133,0,0,1,43.785-462.418Z" transform="translate(4102.803 1505.408)" fill="#29991d"/>
    <path id="Path_85605" data-name="Path 85605" d="M79.421-395.726a9.407,9.407,0,0,0-2.081,1.915,8.268,8.268,0,0,0-1.043,1.843,1.271,1.271,0,0,1-.09.27,8.248,8.248,0,0,0-.481,2.3l-.027.458.117.045c.13.049,4.948.049,5,0a2.912,2.912,0,0,0,.072-.445,1.9,1.9,0,0,1,.243-.827,3.166,3.166,0,0,1,.993-1.178c.108-.063.2-.135.2-.157a4.235,4.235,0,0,0-.315-.624c-.022-.036-.144-.252-.27-.472s-.252-.436-.274-.472c-.04-.068-.112-.193-.458-.809-.1-.189-.225-.4-.265-.463a9.392,9.392,0,0,1-.485-.818c-.252-.481-.436-.742-.512-.737A1.643,1.643,0,0,0,79.421-395.726Z" transform="translate(4061.544 1440.744)" fill="#29991d"/>
    <path id="Path_85606" data-name="Path 85606" d="M289.871-395.883a1.669,1.669,0,0,0-.2.3c-.054.1-.144.27-.207.369s-.135.229-.167.292-.126.229-.211.373c-.351.584-.4.669-.62,1.079a2.134,2.134,0,0,1-.144.234,2.106,2.106,0,0,0-.144.234c-.139.261-.252.463-.4.71-.306.526-.382.7-.31.737a3.537,3.537,0,0,1,1.119,1.191c.045.1.112.257.153.342a2.7,2.7,0,0,1,.126.553,1.048,1.048,0,0,0,.121.445,16.283,16.283,0,0,0,2.414.068c1.29,0,2.4,0,2.476-.027.126-.031.13-.04.144-.341a3.656,3.656,0,0,0-.036-.625c-.031-.175-.072-.449-.094-.611a8.509,8.509,0,0,0-.728-2.135c-.027-.049-.076-.153-.112-.225a8.969,8.969,0,0,0-1.461-1.892A7.6,7.6,0,0,0,290.019-396,.364.364,0,0,0,289.871-395.883Z" transform="translate(3859.319 1440.838)" fill="#29991d"/>
    <path id="Path_85607" data-name="Path 85607" d="M213.2-284.806a1.922,1.922,0,0,0-.782.4,1.839,1.839,0,0,0-.715,1.542,1.875,1.875,0,0,0,1.218,1.78,1.49,1.49,0,0,0,.746.139,1.3,1.3,0,0,0,.8-.189,1.861,1.861,0,0,0,1.047-1.155,1.351,1.351,0,0,0,.1-.688,1.506,1.506,0,0,0-.184-.723,1.833,1.833,0,0,0-1.218-1.061A1.749,1.749,0,0,0,213.2-284.806Z" transform="translate(3931.658 1334.695)" fill="#29991d"/>
    <path id="Path_85608" data-name="Path 85608" d="M168.256-184.1a1.754,1.754,0,0,0-.207.3c-.054.1-.148.261-.207.36s-.144.252-.193.337c-.081.153-.476.836-.67,1.16-.054.09-.13.225-.171.3s-.139.247-.225.382a3.829,3.829,0,0,0-.225.382c-.04.072-.13.234-.2.36-.4.674-.4.71-.139.845.063.031.157.081.207.112s.22.1.382.166.382.157.494.207a2.715,2.715,0,0,0,.422.13,1.811,1.811,0,0,1,.3.09,11.291,11.291,0,0,0,2.072.27,9.93,9.93,0,0,0,2.157-.319,8.551,8.551,0,0,0,1.429-.557,2.262,2.262,0,0,1,.234-.112c.157-.067.184-.157.1-.328-.157-.315-.58-1.052-.674-1.178a4.232,4.232,0,0,1-.238-.4c-.081-.148-.189-.351-.252-.449s-.139-.243-.175-.315-.175-.305-.3-.517-.292-.494-.369-.629c-.22-.409-.409-.674-.472-.674a2.234,2.234,0,0,0-.4.144,2.018,2.018,0,0,1-.912.162,2.667,2.667,0,0,1-1.187-.144C168.368-184.231,168.382-184.231,168.256-184.1Z" transform="translate(3975.46 1238.547)" fill="#29991d"/>
  </g>
</svg>
