<svg xmlns="http://www.w3.org/2000/svg" width="24.418" height="23.655" viewBox="0 0 24.418 23.655">
  <g id="Group_32391" data-name="Group 32391" transform="translate(-4700.502 -1038.847)">
    <path id="Path_85670" data-name="Path 85670" d="M17.079,47.5a5.952,5.952,0,0,0-2.422-1.432.381.381,0,1,1,.17-.743,6.572,6.572,0,0,1,2.775,1.62.381.381,0,0,1,.016.539c-.075.08-.239.173-.54.016Z" transform="translate(4703.693 1003.834)" fill="#6d6d6d"/>
    <path id="Path_85671" data-name="Path 85671" d="M65.971,28.125a.381.381,0,0,1,.382.382v2L64.78,33.394c-.07.127-.172.244-.518.152a.382.382,0,0,1-.153-.518l1.479-2.711v-1.81a.381.381,0,0,1,.382-.382Z" transform="translate(4642.927 1016.828)" fill="#6d6d6d"/>
    <path id="Path_85672" data-name="Path 85672" d="M7.813,61.661a5.668,5.668,0,0,1,.368-2.016.382.382,0,0,1,.406-.243,4.643,4.643,0,0,1,1.3.422,2.624,2.624,0,0,0,1.035.311,2.368,2.368,0,0,0,1.044-.313,3.394,3.394,0,0,1,3.378,0,2.368,2.368,0,0,0,1.044.313,1.908,1.908,0,0,0,.9-.3A3.481,3.481,0,0,1,18.48,59.4a.38.38,0,0,1,.41.242,5.664,5.664,0,0,1,.368,2.016,5.723,5.723,0,0,1-8.584,4.956A6.165,6.165,0,0,1,8.839,64.93a5.686,5.686,0,0,1-1.026-3.271Zm7.63,1.908a.763.763,0,1,0-.763-.763A.764.764,0,0,0,15.443,63.569Zm-3.624,1.145a.954.954,0,1,0-.954-.954A.955.955,0,0,0,11.819,64.713Z" transform="translate(4703.755 993.211)" fill="#6d6d6d"/>
    <path id="Path_85673" data-name="Path 85673" d="M.529,20.794l5.577-9.759V5.763a1.3,1.3,0,0,1-1.145-1.3,1.345,1.345,0,0,1,.39-.945,1.327,1.327,0,0,1,.945-.39h4.158a1.358,1.358,0,0,1,1.37,1.232,1.282,1.282,0,0,1-.409,1.062,1.48,1.48,0,0,1-.733.343v5.273l.712,1.247a.382.382,0,1,1-.663.379l-.814-1.422V5.8H8.394a.382.382,0,0,1,0-.763H10.3a.9.9,0,0,0,.6-.181.514.514,0,0,0,.159-.391.573.573,0,0,0-.572-.572H6.3a.57.57,0,0,0-.572.572c0,.361.273.568.75.572a.385.385,0,0,1,.395.378v5.828L1.191,21.172A3.2,3.2,0,0,0,1.6,24.93a3.463,3.463,0,0,0,2.571,1.085H12.79a3.273,3.273,0,0,0,.574-.056,7.563,7.563,0,0,1-1.616-1.088H4.071a2.153,2.153,0,0,1-1.89-1.055,2.106,2.106,0,0,1,0-2.075l3.193-5.589a.385.385,0,0,1,.456-.172,10.112,10.112,0,0,1,.981.391,4.2,4.2,0,0,0,1.778.488,2.484,2.484,0,0,0,.982-.195A7.617,7.617,0,0,1,14.5,11.876V8.433a1.3,1.3,0,0,1-1.145-1.3,1.345,1.345,0,0,1,.39-.945,1.327,1.327,0,0,1,.945-.39h4.158a1.358,1.358,0,0,1,1.37,1.232,1.282,1.282,0,0,1-.409,1.062,1.48,1.48,0,0,1-.733.343v3.444A7.627,7.627,0,0,1,17.666,26.73a8.084,8.084,0,0,1-.882.05,7.536,7.536,0,0,1-2.329-.371,3.941,3.941,0,0,1-1.665.369H4A4,4,0,0,1,.528,20.793ZM4.771,21.82a.572.572,0,1,0,.572.572A.573.573,0,0,0,4.771,21.82ZM7.06,19.149a.954.954,0,1,0,.954.954A.955.955,0,0,0,7.06,19.149Zm7.495,6.5A6.864,6.864,0,1,0,18.6,12.532a.382.382,0,0,1-.281-.368V8.084A.381.381,0,0,1,18.7,7.7a.9.9,0,0,0,.6-.181.514.514,0,0,0,.159-.391.573.573,0,0,0-.572-.572h-4.2a.57.57,0,0,0-.572.572c0,.363.279.572.763.572h1.526a.382.382,0,0,1,0,.763H15.262v3.7a.381.381,0,0,1-.282.368,6.859,6.859,0,0,0-2.832,11.678,6.785,6.785,0,0,0,2.406,1.435Z" transform="translate(4700.502 1035.723)" fill="#6d6d6d"/>
    <path id="Path_85674" data-name="Path 85674" d="M28.125,41.008a.382.382,0,0,0,.763,0,.382.382,0,0,0-.763,0" transform="translate(4689.166 1007.379)" fill="#6d6d6d"/>
  </g>
</svg>
