<svg xmlns="http://www.w3.org/2000/svg" width="14.118" height="14.118" viewBox="0 0 14.118 14.118">
  <g id="Group_32400" data-name="Group 32400" transform="translate(-3142.302 -1124.8)">
    <path id="Path_85643" data-name="Path 85643" d="M63.375,68.523a7.059,7.059,0,1,1,7.059-7.059A7.068,7.068,0,0,1,63.375,68.523Zm0-13.331a6.272,6.272,0,1,0,6.272,6.272,6.28,6.28,0,0,0-6.272-6.272Z" transform="translate(3085.986 1070.395)" fill="#6d6d6d" fill-rule="evenodd"/>
    <path id="Path_85644" data-name="Path 85644" d="M65.692,66.254h-.061a.374.374,0,0,1-.286-.2l-2.257-4.321a.393.393,0,0,1,.53-.53l4.331,2.257a.39.39,0,0,1,.2.286.386.386,0,0,1-.112.337l-2.073,2.063a.4.4,0,0,1-.277.112Zm-1.338-3.789,1.43,2.748L67.1,63.9Z" transform="translate(3082.639 1067.033)" fill="#6d6d6d" fill-rule="evenodd"/>
    <path id="Path_85645" data-name="Path 85645" d="M72.265,70.748a.394.394,0,0,1-.184-.041L67.75,68.45a.39.39,0,0,1-.2-.286.386.386,0,0,1,.112-.337l2.073-2.063a.379.379,0,0,1,.337-.112.374.374,0,0,1,.286.2l2.257,4.321a.387.387,0,0,1-.071.459.4.4,0,0,1-.277.112ZM68.587,68l2.748,1.43-1.43-2.748Z" transform="translate(3080.397 1064.797)" fill="#6d6d6d" fill-rule="evenodd"/>
  </g>
</svg>
