<svg xmlns="http://www.w3.org/2000/svg" width="24.602" height="23.835" viewBox="0 0 24.602 23.835">
  <path id="Union_283" data-name="Union 283" d="M-1759.477-14127.194a.521.521,0,0,1-.519-.519.521.521,0,0,1,.519-.519l4.628.025-.053-2.053a.638.638,0,0,1,.156-.362.464.464,0,0,1,.362-.156h4.652l-.053-2.028a.533.533,0,0,1,.156-.391.479.479,0,0,1,.366-.156l4.677.028-.025-2.105a.5.5,0,0,1,.156-.366.518.518,0,0,1,.362-.156l5.171.028a.522.522,0,0,1,.522.519.522.522,0,0,1-.522.519l-4.652-.024.028,2.105a.515.515,0,0,1-.156.362.516.516,0,0,1-.366.156l-4.624-.053.053,2.027a.532.532,0,0,1-.156.391.476.476,0,0,1-.366.156h-4.677l.053,2.078a.517.517,0,0,1-.156.365.516.516,0,0,1-.366.156Zm.622-1.559a1.356,1.356,0,0,1-.987-1.612l1.612-6.73a2.918,2.918,0,0,1-.7-.675,2.553,2.553,0,0,1-.284-2.312c.181-.729.416-1.691.6-2.444a7.779,7.779,0,0,0-1.247,1.091,5.257,5.257,0,0,0-.753,1.354,1.2,1.2,0,0,1-1.2,1.036,1.221,1.221,0,0,1-1.09-.7c-.494-1.09,1.144-3.172,1.144-3.25a12.144,12.144,0,0,1,2.39-2.027c.053-.025.107-.05.156-.078a6.308,6.308,0,0,1,2.312-.885,2.911,2.911,0,0,1,2.653.781,4.884,4.884,0,0,1,.337.362,11.991,11.991,0,0,0,1.691,1.822,4.635,4.635,0,0,1,.391.337,5.37,5.37,0,0,0,2.053.206,1.205,1.205,0,0,1,1.247,1.094,1.193,1.193,0,0,1-1.119,1.271,8.474,8.474,0,0,1-3.143-.391,1.138,1.138,0,0,1-.444-.284c-.181-.156-.362-.337-.543-.493s-.391-.338-.6-.544l-.675,2.855h.131c3.04.21,3.612,1.848,3.768,3.069,0,0,.231,1.818.465,3.171a1.338,1.338,0,0,1-1.144,1.506.574.574,0,0,1-.206.025,1.336,1.336,0,0,1-1.3-1.144c-.078-.65-.391-2.728-.444-3.168v-.054c-.025-.415-.05-.649-1.3-.753-.181-.028-.362-.028-.572-.053l-1.584,6.6a1.327,1.327,0,0,1-1.3,1.037A1.365,1.365,0,0,1-1758.855-14128.753Zm3.168-17.645a2.394,2.394,0,0,1-1.3-3.125,2.394,2.394,0,0,1,3.125-1.3v0a2.385,2.385,0,0,1,1.293,3.122,2.391,2.391,0,0,1-2.21,1.479A2.372,2.372,0,0,1-1755.687-14146.4Z" transform="translate(1763 14151.001)" fill="#6d6d6d"/>
</svg>
