<svg xmlns="http://www.w3.org/2000/svg" width="16.093" height="12.9" viewBox="0 0 16.093 12.9">
  <path id="Path_85691" data-name="Path 85691" d="M24.088,31.956l.015.015.012.008h0a1.656,1.656,0,0,1-.022,2.31v0l-.008,0-.015.015-.008.012h0a1.649,1.649,0,0,1-2.3-.027h-.008v0a1.657,1.657,0,0,1,0-2.333v0l.023-.023a1.644,1.644,0,0,1,2.314.023Zm-.582.582h0a.827.827,0,0,0-1.156-.015l-.015.015a.827.827,0,0,0,0,1.171l0,.008h0a.827.827,0,0,0,1.152.012l.015-.015a.826.826,0,0,0,.015-1.159Zm-4.667-3.5h0a.413.413,0,1,1-.585-.585,6.578,6.578,0,0,1,9.333,0A.413.413,0,1,1,27,29.04a5.755,5.755,0,0,0-8.164,0Zm-3.279-3.274h0a.414.414,0,0,1-.585-.585,11.2,11.2,0,0,1,15.883,0,.413.413,0,0,1-.574.585,10.385,10.385,0,0,0-14.723,0" transform="translate(-14.856 -21.878)" fill="#ff1f1f"/>
</svg>
