<svg xmlns="http://www.w3.org/2000/svg" width="32" height="32" viewBox="0 0 32 32"><defs><style>.a,.b{fill:#414141;}.a{opacity:0;}</style></defs><rect class="a" width="32" height="32"/><path class="b" d="M8,16a8,8,0,1,1,8-8A8.024,8.024,0,0,1,8,16ZM8,1A6.957,6.957,0,0,0,1,8a6.957,6.957,0,0,0,7,7,6.957,6.957,0,0,0,7-7A6.957,6.957,0,0,0,8,1Z" transform="translate(8 8)"/><rect class="b" width="1" height="1" transform="translate(15.5 20)"/><path class="b" d="M253.5,999.5a3,3,0,0,0-6,0h1a2,2,0,1,1,2,2H250v3h1v-2A3.1,3.1,0,0,0,253.5,999.5Z" transform="translate(-234.5 -985.5)"/></svg>