<svg xmlns="http://www.w3.org/2000/svg" xmlns:xlink="http://www.w3.org/1999/xlink" width="43.823" height="43.823" viewBox="0 0 43.823 43.823"><defs><style>.a{fill:none;}.b{clip-path:url(#a);}.c{fill:#414141;}</style><clipPath id="a"><rect class="a" width="43.823" height="43.823"/></clipPath></defs><g class="b"><rect class="a" width="43.823" height="43.823"/><g transform="translate(486.419 257.461)"><path class="a" d="M-475.207-224.593a10.964,10.964,0,0,1,10.956-10.956A10.964,10.964,0,0,1-453.3-224.593"/></g><g transform="translate(486.163 257.461)"><circle class="a" cx="6.163" cy="6.163" r="6.163" transform="translate(-470.414 -246.505)"/><path class="c" d="M-462.06-234.591a6.111,6.111,0,0,0,3.971-5.752,6.137,6.137,0,0,0-1.8-4.365,6.137,6.137,0,0,0-4.365-1.8,6.137,6.137,0,0,0-4.365,1.8,6.137,6.137,0,0,0-1.8,4.365,6.249,6.249,0,0,0,3.971,5.752,10.527,10.527,0,0,0-8.08,10h1.369a8.884,8.884,0,0,1,2.6-6.3,8.884,8.884,0,0,1,6.3-2.6,8.884,8.884,0,0,1,6.3,2.6,8.884,8.884,0,0,1,2.6,6.3h1.369a10.261,10.261,0,0,0-8.08-10Zm-6.984-5.752a4.852,4.852,0,0,1,4.793-4.793,4.852,4.852,0,0,1,4.793,4.793,4.852,4.852,0,0,1-4.793,4.793,4.852,4.852,0,0,1-4.793-4.793Z"/></g></g></svg>