<?xml version="1.0" encoding="UTF-8"?>
<svg version="1.1" xmlns="http://www.w3.org/2000/svg" width="379" height="355">
<path d="M0 0 C31.17654869 28.31359773 51.53677956 69.84326776 54 112 C56.19200891 161.42681577 40.29136515 205.02635106 7.125 241.625 C1.84992528 247.34022108 -3.81701951 252.27287024 -10 257 C-10.89847656 257.72574219 -11.79695313 258.45148438 -12.72265625 259.19921875 C-46.62473184 285.91983679 -91.45729123 296.71659603 -134 292.3125 C-168.99207464 288.13103265 -202.36806216 273.2414168 -228 249 C-229.34989846 247.84914139 -230.70390621 246.70308069 -232.0625 245.5625 C-262.30288701 219.0114402 -280.08370829 176.60847853 -283 137 C-285.20485982 88.33955417 -269.59688453 44.14964589 -237 8 C-212.45695918 -18.7957837 -179.18126825 -34.79385113 -144 -42 C-142.79472656 -42.24878906 -141.58945313 -42.49757813 -140.34765625 -42.75390625 C-89.36676632 -51.26063584 -38.16039693 -33.75313982 0 0 Z M-223.46386719 27.25244141 C-231.66236684 36.57934231 -238.25034926 47.02673039 -244 58 C-244.60585937 59.14597656 -245.21171875 60.29195313 -245.8359375 61.47265625 C-262.55185465 94.37081138 -264.15813963 133.77253852 -253.4375 168.73046875 C-241.70946248 204.65572812 -216.0448692 235.85090579 -182.48828125 253.41796875 C-146.84157101 271.31730989 -106.33331945 274.94047807 -68.31640625 262.5 C-32.15351407 250.11474264 -1.42720366 224.36366713 15.64526367 189.93994141 C23.92035364 172.64204365 30.33808192 153.33352405 31 134 C31.02578125 133.36755371 31.0515625 132.73510742 31.078125 132.08349609 C32.29905555 98.2408274 23.07307573 63.9098629 2 37 C1.28328125 36.06414062 0.5665625 35.12828125 -0.171875 34.1640625 C-24.34903012 3.55681293 -59.65718462 -15.81030445 -98.2890625 -20.55859375 C-145.41553754 -25.50592891 -191.50224534 -7.49061915 -223.46386719 27.25244141 Z " fill="#FFBC00" transform="translate(306,51)"/>
<path d="M0 0 C13.46815871 11.43277781 19.84949898 25.73293105 22 43 C22.2794126 47.27563953 22.33454249 51.52858934 22.3125 55.8125 C22.30512817 57.51817139 22.30512817 57.51817139 22.29760742 59.25830078 C22.01919898 79.28943106 16.61473699 96.87956093 2 111.1875 C-16.0503664 126.26048637 -38.45262441 127.48599903 -61 126 C-79.24068029 123.9764545 -93.1035121 116.3523958 -105.09765625 102.59375 C-118.38499094 85.07198996 -120.32131568 61.7912327 -117.5 40.6015625 C-114.28250408 22.8687725 -106.00802755 7.50298167 -91.109375 -3.046875 C-64.99788718 -19.04187016 -24.68106076 -19.18778392 0 0 Z M-67.875 25.625 C-77.6228914 37.94780611 -77.00753797 54.28377279 -75.7265625 69.1796875 C-74.51034113 76.36227788 -71.64695034 84.04194511 -66.0625 88.9375 C-65.051875 89.618125 -64.04125 90.29875 -63 91 C-61.7315625 91.86625 -61.7315625 91.86625 -60.4375 92.75 C-51.5029272 95.99893556 -42.70560206 95.63278883 -34 92 C-33.0925 91.62875 -32.185 91.2575 -31.25 90.875 C-24.06564651 84.88803876 -21.61267591 76.92679163 -20 68 C-19.61896956 63.77958133 -19.57805823 59.61019124 -19.625 55.375 C-19.61339844 54.32054687 -19.60179687 53.26609375 -19.58984375 52.1796875 C-19.62726407 42.10114873 -21.3199926 32.89735462 -28.53125 25.41015625 C-35.26592958 19.14996546 -41.83342153 17.3720341 -50.97265625 17.66015625 C-57.80264234 18.42687727 -63.10034692 20.61718976 -67.875 25.625 Z " fill="#FFBC00" transform="translate(205,106)"/>
<path d="M0 0 C5.16527832 3.57352928 8.62903389 7.90083522 9.7890625 14.16015625 C10.26528858 22.4048202 7.29297685 29.20223788 1.9140625 35.32421875 C-1.26364016 38.21598212 -4.63563224 40.76882025 -8.0859375 43.32421875 C-9.75408489 44.65569907 -11.42084154 45.9889244 -13.0859375 47.32421875 C-16.8359375 50.32421875 -16.8359375 50.32421875 -19.0859375 50.32421875 C-19.0859375 50.98421875 -19.0859375 51.64421875 -19.0859375 52.32421875 C-9.5159375 52.32421875 0.0540625 52.32421875 9.9140625 52.32421875 C9.9140625 57.60421875 9.9140625 62.88421875 9.9140625 68.32421875 C-9.2259375 68.32421875 -28.3659375 68.32421875 -48.0859375 68.32421875 C-46.24773868 53.61862818 -38.16935166 44.71233275 -26.84765625 35.703125 C-19.46556189 30.00454899 -19.46556189 30.00454899 -15.8125 28.203125 C-13.49891299 27.02539406 -13.04440264 25.68351755 -12.0859375 23.32421875 C-11.7559375 22.66421875 -11.4259375 22.00421875 -11.0859375 21.32421875 C-10.82733615 17.27279756 -10.78152196 15.78084206 -13.0859375 12.32421875 C-16.36493199 11.53483119 -19.00650359 11.11432882 -22.3359375 11.76171875 C-25.19345478 14.31307346 -25.94946822 17.75044954 -27.0859375 21.32421875 C-29.85830244 21.23730136 -32.62740828 21.13044514 -35.3984375 21.01171875 C-36.18412109 20.98916016 -36.96980469 20.96660156 -37.77929688 20.94335938 C-38.53662109 20.90791016 -39.29394531 20.87246094 -40.07421875 20.8359375 C-40.77071533 20.80975342 -41.46721191 20.78356934 -42.18481445 20.7565918 C-44.57944109 20.21198107 -45.51866297 19.16592713 -47.0859375 17.32421875 C-44.92729448 9.4707346 -42.33280339 3.55875878 -35.0859375 -0.67578125 C-25.00201731 -4.39156822 -9.75215261 -4.91053621 0 0 Z " fill="#FFBC00" transform="translate(286.0859375,179.67578125)"/>
</svg>
