<svg xmlns="http://www.w3.org/2000/svg" width="119.01px" height="119.008px" viewBox="0 0 119.01 119.008" transform="rotate(0) scale(1, 1)">
  <g id="Bio_Icon_svg" transform="translate(0 0)">
    <path id="Path_85609" d="M71.014-460.522c-.668.054-2.218.347-3.474.615-1.256.294-2.86.641-3.608.8a49.259,49.259,0,0,0-6.548,1.9c-3.073,1.256-7.109,3.047-7.483,3.341A20.82,20.82,0,0,1,47.63-452.5a53.181,53.181,0,0,0-7.349,5.024,90.1,90.1,0,0,0-8.472,8.312c-.321.454-.962,1.283-1.416,1.871a64.693,64.693,0,0,0-8.926,16.837c-.4,1.309-.909,2.806-1.122,3.287a9.925,9.925,0,0,0-.534,2c-.08.615-.4,2.378-.722,3.929-.508,2.485-.588,3.661-.588,10.155,0,7.456.187,9.3,1.47,14.431a84.888,84.888,0,0,0,2.886,8.712c.16.267.722,1.47,1.283,2.646a23.3,23.3,0,0,0,1.309,2.539,3.33,3.33,0,0,1,.535,1.069,6.933,6.933,0,0,0,.668,1.336c.241.374.695,1.015.962,1.443s.695,1.042.909,1.39a65.777,65.777,0,0,0,10.449,11.652,60.08,60.08,0,0,0,5.452,4.223,18.132,18.132,0,0,1,1.978,1.2,15.07,15.07,0,0,0,2,1.2,16.1,16.1,0,0,1,2.111,1.1c1.069.588,2.539,1.336,3.26,1.63a62.916,62.916,0,0,0,10.556,3.474c.8.134,2.245.428,3.207.668a61.658,61.658,0,0,0,14.618.668,57.592,57.592,0,0,0,20.925-5.238c.828-.347,5.131-2.753,7-3.9A61.58,61.58,0,0,0,125.8-365.382c.882-1.176,1.791-2.459,2.058-2.806a65.984,65.984,0,0,0,3.822-6.975c.615-1.256,1.229-2.485,1.363-2.779a42.717,42.717,0,0,0,1.951-5.692c.214-.748.454-1.5.535-1.657a81.431,81.431,0,0,0,1.791-8.846,77.936,77.936,0,0,0,.16-8.418c-.107-5.906-.187-6.735-.962-10.369a41.7,41.7,0,0,0-.989-4.223,16.382,16.382,0,0,1-.641-1.924,42.119,42.119,0,0,0-1.817-5.158c-.16-.267-1.016-2-1.924-3.849A44.1,44.1,0,0,0,127-435.213a74.489,74.489,0,0,0-7.269-8.632,79.181,79.181,0,0,0-6.681-5.639,8.313,8.313,0,0,1-1.416-.909,34.51,34.51,0,0,0-3.207-2.031c-1.1-.614-2.191-1.256-2.405-1.443a22.4,22.4,0,0,0-2.405-1.176c-1.1-.481-2.218-.989-2.485-1.122a59.042,59.042,0,0,0-9.808-3.073c-1.1-.214-2.726-.588-3.608-.828-1.229-.321-3.26-.428-8.552-.481C75.343-460.575,71.682-460.575,71.014-460.522ZM84.376-453.6a44.017,44.017,0,0,1,5.078.855c.8.241,2.138.588,2.94.775a42.708,42.708,0,0,1,5.773,1.924c.294.133,2,.989,3.848,1.924,7.91,3.929,13.576,8.926,19.91,17.558a57.494,57.494,0,0,1,4.864,9.167,39.736,39.736,0,0,1,2.085,5.88c.107.508.4,1.71.695,2.672a65.306,65.306,0,0,1,1.31,11.892,57.415,57.415,0,0,1-3.18,17.638,53.533,53.533,0,0,1-4.944,10.342c-.534.935-4.062,5.773-4.543,6.227-.16.16-1.016,1.069-1.9,2a54.729,54.729,0,0,1-4.81,4.329c-4.062,3.287-4.516,3.634-5.051,3.848a24.373,24.373,0,0,0-2.218,1.336,8.968,8.968,0,0,1-2.218,1.176,2.641,2.641,0,0,0-1.069.454,22.1,22.1,0,0,1-4.81,2.085c-.668.214-1.924.615-2.806.909a31.61,31.61,0,0,1-6.681,1.63c-1.176.16-2.966.4-4.009.534-5.585.748-15.393-.4-20.845-2.405a17.539,17.539,0,0,0-2.138-.7,59.425,59.425,0,0,1-6.414-2.833c-.294-.187-.935-.535-1.443-.8A7.855,7.855,0,0,1,50.463-356a6.292,6.292,0,0,0-1.122-.748c-2.886-1.55-9.541-7.323-11.786-10.262-.107-.16-.775-.989-1.5-1.871-.695-.882-1.63-2.138-2.031-2.806-.428-.668-1.016-1.523-1.283-1.951a60.046,60.046,0,0,1-5.986-13.95,57.85,57.85,0,0,1-1.764-13.229,52.8,52.8,0,0,1,3.26-18.574,73.222,73.222,0,0,1,5.4-10.716,56.977,56.977,0,0,1,10.556-11.786,77.539,77.539,0,0,1,7.429-5.158,19.018,19.018,0,0,0,2.085-1.1,31.738,31.738,0,0,1,2.86-1.443c.508-.187,1.9-.722,3.073-1.2a33.418,33.418,0,0,1,3.875-1.229c.962-.214,2.352-.561,3.073-.8C70.186-453.894,78.524-454.268,84.376-453.6Z" transform="translate(-18.5 460.566)" fill="#000000"/>
    <path id="Path_85610" d="M296.527-394.5c-.08.134.027.374.24.561.321.267.4.267.4-.08C297.168-394.525,296.741-394.846,296.527-394.5Z" transform="translate(-222.206 412.262)" fill="#000000"/>
    <path id="Path_85611" d="M104.782-389.3a25.4,25.4,0,0,0-3.715,5.746c-.08.214-.428,1.123-.775,2-.962,2.485-1.336,6.868-.935,10.717a15.13,15.13,0,0,0,1.9,6.655,5.063,5.063,0,0,1,.508,1.416c0,.428-1.6,1.122-2.619,1.122a24.854,24.854,0,0,0-7.59,2.272A24.122,24.122,0,0,0,80.73-348.307c-1.309,2.672-1.684,4.7-.882,4.7.214,0,.508-.4.641-.882.347-1.229,4.436-5.345,6.441-6.521a28.956,28.956,0,0,1,3.741-1.684c1.951-.721,2.432-.775,5.612-.775,3.154,0,3.688.054,5.746.775a18.671,18.671,0,0,1,8.071,5.185c1.6,1.791,2.432,2.058,3.287,1.1a1.537,1.537,0,0,1,.8-.534,6.437,6.437,0,0,0,1.523-.8c1.149-.775,1.2-.882,1.363-2.352.16-1.71,1.229-3.9,2.138-4.356a8.446,8.446,0,0,0,1.336-.989c.695-.668.722-.8.722-3.18,0-2.859-.374-3.554-1.924-3.554a6.176,6.176,0,0,1-2.058-.534,6.389,6.389,0,0,0-1.5-.534,14.327,14.327,0,0,1-3.581-1.9c-.374-.294-1.149-.882-1.71-1.309a18.745,18.745,0,0,1-5.345-7.75c-.828-1.951-.855-2.085-.855-6.28,0-4.142.027-4.329.8-6.147a24.709,24.709,0,0,1,1.256-2.539,6.2,6.2,0,0,0,.615-1.283C107.295-391.574,106.386-391.094,104.782-389.3Z" transform="translate(-63.145 409.631)" fill="#000000"/>
    <path id="Path_85612" d="M260.431-389.428a2.615,2.615,0,0,0,.508,1.149,4.308,4.308,0,0,1,.722,1.443,16.372,16.372,0,0,0,.748,1.978c.481,1.042.561,1.737.561,5.078,0,3.581-.053,4.035-.748,5.986a16.3,16.3,0,0,1-2.3,4.57,19.4,19.4,0,0,1-7.617,6.414c-.535.214-1.39.588-1.924.828a18.9,18.9,0,0,1-2.325.668c-2,.374-2.058.481-2.058,3.447v2.619l1.016.855c1.9,1.6,2.165,1.9,2.7,3.047a5.792,5.792,0,0,1,.561,2.245c0,1.283.561,2,2.085,2.646a9.3,9.3,0,0,1,1.63.909c1.042.828,1.6.615,3.18-1.122a18.434,18.434,0,0,1,2.539-2.325,17.788,17.788,0,0,1,4.142-2.378,10.593,10.593,0,0,0,1.79-.641c1.523-.668,5.4-.909,8.231-.508a8.383,8.383,0,0,1,2.459.561,3.264,3.264,0,0,0,1.229.508,16.23,16.23,0,0,1,4.142,2.218c.187.187.748.615,1.256.989a23.491,23.491,0,0,1,3.982,4.864c1.149,1.871,1.363.24.321-2.405a26.277,26.277,0,0,0-8.392-10.9,27.307,27.307,0,0,0-11.6-4.3c-1.63-.267-2.058-.828-1.443-1.871a22.565,22.565,0,0,0,2.111-7.456,23.6,23.6,0,0,0-5.639-18.36C261.126-389.99,260.431-390.283,260.431-389.428Z" transform="translate(-185.201 408.794)" fill="#000000"/>
    <path id="Path_85613" d="M205.1-325.6c-3.474.508-8.1,2.352-8.1,3.207,0,.535,2.111,2.432,3.822,3.447.989.615,1.042.615,2.138.187a19.588,19.588,0,0,1,11.091-.107l1.416.534,1.122-.588c1.443-.775,3.929-2.86,3.929-3.367,0-.962-4.623-2.86-8.044-3.314A30.917,30.917,0,0,0,205.1-325.6Z" transform="translate(-149.296 361.834)" fill="#000000"/>
    <path id="Path_85614" d="M153.493-239.169c-.508.481-.508.588-.16,3.688a25.1,25.1,0,0,0,3.848,9.781c1.871,2.886,7.456,7.536,8.151,6.815a20.937,20.937,0,0,0,.829-5.238c0-.588-.4-1.2-1.6-2.512-1.684-1.817-3.741-4.784-3.741-5.4a4.583,4.583,0,0,0-.534-1.336,9.11,9.11,0,0,1-.695-2.138,3.892,3.892,0,0,0-2.833-2.966c-.481-.16-1.336-.454-1.871-.695C154-239.544,153.867-239.544,153.493-239.169Z" transform="translate(-117.121 298.542)" fill="#000000"/>
    <path id="Path_85615" d="M289.715-238.285c-2.325.882-3.047,1.63-3.394,3.447a19.5,19.5,0,0,1-4.516,8.231l-2,2.191.16,2.272c.214,2.672.508,3.528,1.176,3.528.8,0,3.02-1.577,5.024-3.581a22.422,22.422,0,0,0,6.521-13.443C293.162-239.141,292.788-239.461,289.715-238.285Z" transform="translate(-209.968 298.139)" fill="#000000"/>
    <path id="Path_85616" d="M164.767-221.792c-1.978.989-2.993,1.069-4.7.294a6.8,6.8,0,0,0-2.138-.695c-1.176,0-5.158,2.485-5.158,3.234a6.476,6.476,0,0,0,.508,1.283c1.363,2.673,1.443,8.926.134,12.213a19.118,19.118,0,0,1-4.329,6.948A17.907,17.907,0,0,1,142.211-194a13.852,13.852,0,0,1-5.078.855c-3.367.16-4.623.454-3.207.748.454.08,1.6.374,2.565.668a23.4,23.4,0,0,0,10.1,0,19.5,19.5,0,0,1,2.378-.535,25.071,25.071,0,0,0,3.207-1.39,16.031,16.031,0,0,0,5.4-3.955c1.416-1.39,2.966-3.047,3.448-3.661.508-.615,1.042-1.042,1.256-.962a6.493,6.493,0,0,1,1.39,1.5,25.408,25.408,0,0,0,8.605,7.189c.668.294,1.577.668,2,.882,3.234,1.443,9.995,1.951,13.255.962.935-.294,2.111-.588,2.592-.695,1.523-.321.668-.534-2.833-.695a13.868,13.868,0,0,1-5.452-.989,18.973,18.973,0,0,1-7.59-5.345,14.462,14.462,0,0,1-1.71-2.245,2.593,2.593,0,0,0-.481-.962,16.5,16.5,0,0,1-1.924-5.291c-.561-3.421-.134-8.2.935-10.262.4-.775.4-.882,0-1.336a20.681,20.681,0,0,0-4.57-2.726A3.587,3.587,0,0,0,164.767-221.792Z" transform="translate(-102.659 285.949)" fill="#000000"/>
  </g>
</svg>