<svg xmlns="http://www.w3.org/2000/svg" width="69.028" height="69.028" viewBox="0 0 69.028 69.028">
  <path id="Path_85704" data-name="Path 85704" d="M68.4,59.771V42.514A25.387,25.387,0,0,0,51.143,18.07V16.629a8.629,8.629,0,1,0-17.257,0V18.07A25.387,25.387,0,0,0,16.629,42.514V59.771H8v4.314H33.886V68.4a8.629,8.629,0,0,0,17.257,0V64.086H77.028V59.771ZM38.2,16.629a4.314,4.314,0,1,1,8.629,0V17A25.268,25.268,0,0,0,38.2,17ZM46.828,68.4a4.314,4.314,0,0,1-8.629,0V64.086h8.629ZM20.943,59.771V42.514a21.572,21.572,0,1,1,43.143,0V59.771Z" transform="translate(-8 -8)" fill="#414141"/>
</svg>
