<?xml version="1.0" encoding="UTF-8"?>
<svg version="1.1" xmlns="http://www.w3.org/2000/svg" width="529" height="501">
<path d="M0 0 C0.70850098 0.09651855 1.41700195 0.19303711 2.14697266 0.29248047 C36.25311025 5.142034 69.8321093 18.22435844 98 38 C99.03511719 38.721875 100.07023437 39.44375 101.13671875 40.1875 C119.05140077 52.98013207 135.34761839 67.70852855 149 85 C149.76957031 85.94101563 150.53914063 86.88203125 151.33203125 87.8515625 C189.66186591 135.77933637 204.6795309 197.31476502 198.75 257.75 C193.92694661 300.94071404 176.25015458 340.7054432 150 375 C149.32195312 375.90878906 148.64390625 376.81757813 147.9453125 377.75390625 C147.32398438 378.57761719 146.70265625 379.40132813 146.0625 380.25 C145.24458984 381.34054687 145.24458984 381.34054687 144.41015625 382.453125 C143.94480469 382.96359375 143.47945313 383.4740625 143 384 C142.34 384 141.68 384 141 384 C140.73823975 384.58628174 140.47647949 385.17256348 140.20678711 385.77661133 C138.93252809 388.12431048 137.57261122 389.68581889 135.69140625 391.57421875 C135.03237305 392.23736084 134.37333984 392.90050293 133.69433594 393.58374023 C132.99083008 394.27798096 132.28732422 394.97222168 131.5625 395.6875 C130.8396582 396.40429932 130.11681641 397.12109863 129.37207031 397.85961914 C123.83867899 403.29151985 118.16466241 408.28856882 112 413 C111.14148438 413.68707031 110.28296875 414.37414062 109.3984375 415.08203125 C87.50450116 432.19630543 62.4728188 444.75038229 36 453 C34.89809326 453.35118896 34.89809326 453.35118896 33.77392578 453.70947266 C-25.38497034 472.33184898 -89.28849038 463.49737184 -143.83886719 435.56762695 C-151.56748611 431.52607962 -158.89931154 427.07896466 -166 422 C-166.94875 421.32582031 -167.8975 420.65164063 -168.875 419.95703125 C-180.30667709 411.61129891 -190.88621829 402.2670107 -200.9375 392.3125 C-201.54706543 391.71219971 -202.15663086 391.11189941 -202.78466797 390.4934082 C-207 386.24683788 -207 386.24683788 -207 384 C-207.66 384 -208.32 384 -209 384 C-210.81401482 381.91222838 -212.51089777 379.81933925 -214.1875 377.625 C-214.68290283 376.98377197 -215.17830566 376.34254395 -215.6887207 375.68188477 C-247.31376645 334.50596187 -265.93590174 285.87449347 -265.52148438 233.69775391 C-265.49999701 230.49955525 -265.52147361 227.30360154 -265.546875 224.10546875 C-265.5733735 204.95719924 -263.29625575 185.85075931 -257.875 167.4375 C-257.43667847 165.91745361 -257.43667847 165.91745361 -256.98950195 164.36669922 C-243.01284218 117.71053962 -214.03782943 75.19222302 -175 46 C-174.29746094 45.45214844 -173.59492188 44.90429688 -172.87109375 44.33984375 C-140.47377707 19.21967812 -99.79875639 3.07513711 -59 -1 C-58.04480469 -1.11085938 -57.08960938 -1.22171875 -56.10546875 -1.3359375 C-37.52412001 -3.17666013 -18.47475688 -2.55915232 0 0 Z M-155 72 C-155.56299805 72.43602539 -156.12599609 72.87205078 -156.70605469 73.32128906 C-172.55849697 85.77338723 -186.48778019 100.47439414 -198 117 C-198.43860352 117.62632324 -198.87720703 118.25264648 -199.32910156 118.89794922 C-228.97332628 161.95373992 -239.38953321 216.46590596 -230 267.65625 C-223.14180078 302.50829177 -207.81969301 334.48113017 -184.41015625 361.23046875 C-182.81856132 363.05938416 -181.28212456 364.93797272 -179.80859375 366.86328125 C-179.21175781 367.56839844 -178.61492187 368.27351563 -178 369 C-177.34 369 -176.68 369 -176 369 C-175.505 370.485 -175.505 370.485 -175 372 C-174.34 372 -173.68 372 -173 372 C-173 372.66 -173 373.32 -173 374 C-170.57991366 376.58245635 -167.72233047 378.74581595 -165 381 C-164.49017578 381.43135254 -163.98035156 381.86270508 -163.45507812 382.30712891 C-121.66383851 417.58848461 -69.16808527 433.49246207 -14.80224609 429.78173828 C-8.47549442 429.17883731 -2.23879037 428.2025443 4 427 C4.86351074 426.83371094 5.72702148 426.66742188 6.61669922 426.49609375 C58.67250218 416.05593271 104.30267293 384.86429497 134 341 C134.74378906 339.91847656 135.48757813 338.83695312 136.25390625 337.72265625 C164.03389215 295.0144355 173.74069145 240.55513432 163.42797852 190.76977539 C155.17187267 153.6156616 138.2041321 120.60718799 112 93 C111.51225098 92.47970215 111.02450195 91.9594043 110.52197266 91.42333984 C97.98959998 78.13189412 83.94299986 66.97465498 68 58 C66.97664551 57.41871338 66.97664551 57.41871338 65.93261719 56.82568359 C-3.26881939 17.84474251 -91.90199372 22.90887987 -155 72 Z " fill="#7D7D7D" transform="translate(293,17)"/>
<path d="M0 0 C7.69349258 6.06261397 13.43048179 15.22597354 14.82958984 25.0078125 C16.03751235 38.22497966 12.87861082 48.7720463 4.32421875 59.08984375 C1.90466259 61.68980541 -0.62516666 63.86274034 -3.45703125 66.00390625 C-3.17988281 66.535 -2.90273438 67.06609375 -2.6171875 67.61328125 C-2.25496094 68.3196875 -1.89273438 69.02609375 -1.51953125 69.75390625 C-0.98005859 70.79804688 -0.98005859 70.79804688 -0.4296875 71.86328125 C2.9603483 79.32408292 2.48595624 88.11387708 -0.08203125 95.75390625 C-4.12562729 105.63508813 -10.84031829 112.62132007 -20.48828125 117.22265625 C-23.10442792 118.26080969 -25.66415579 118.7246187 -28.45703125 119.00390625 C-28.45703125 116.36390625 -28.45703125 113.72390625 -28.45703125 111.00390625 C-27.88855469 110.78476562 -27.32007813 110.565625 -26.734375 110.33984375 C-18.10004248 106.79385744 -12.53618947 102.4760041 -8.45703125 94.00390625 C-6.06110337 86.36588112 -6.58501449 78.03538475 -10.2734375 70.96484375 C-14.36367532 64.18827812 -19.03034974 60.58436338 -26.45703125 58.00390625 C-29.33205805 57.55515868 -32.10438531 57.32271131 -35.01171875 57.2421875 C-37.7155472 56.9787154 -39.25335128 56.59950676 -41.45703125 55.00390625 C-42.328125 52.796875 -42.328125 52.796875 -42.89453125 50.19140625 C-44.13757741 45.53502251 -45.52482801 42.99987063 -49.45703125 40.00390625 C-53.549616 37.68108788 -57.83885479 37.36879357 -62.45703125 38.00390625 C-64.47229294 38.97278206 -66.47537091 39.96803835 -68.45703125 41.00390625 C-70.421875 40.921875 -70.421875 40.921875 -72.45703125 40.00390625 C-74.1328125 37.67578125 -74.1328125 37.67578125 -75.76953125 34.75390625 C-79.61138615 28.43819169 -82.99205521 25.35139693 -89.83203125 22.69140625 C-99.02532078 20.94785134 -105.46721042 22.3622364 -113.64453125 26.69140625 C-118.32332637 30.53841557 -120.88345114 35.31146249 -122.95703125 40.94140625 C-124.45703125 44.00390625 -124.45703125 44.00390625 -126.95703125 45.00390625 C-129.45703125 45.00390625 -129.45703125 45.00390625 -132.45703125 44.00390625 C-139.4695754 43.31284778 -145.79997498 43.43707496 -151.45703125 48.00390625 C-153.27081891 50.23531544 -154.92580539 52.54766135 -156.59765625 54.88671875 C-159.16342924 57.80825018 -161.84999315 58.89895845 -165.44140625 60.23046875 C-167.77972412 61.12773026 -169.51115945 62.44720881 -171.45703125 64.00390625 C-172.11703125 64.00390625 -172.77703125 64.00390625 -173.45703125 64.00390625 C-173.74449219 64.58785156 -174.03195313 65.17179687 -174.328125 65.7734375 C-175.01995807 67.14034643 -175.7360926 68.49568606 -176.4921875 69.828125 C-180.5405419 77.17057765 -181.24636761 83.82969494 -179.1171875 91.9375 C-177.33051253 97.53010982 -174.76673043 101.04364214 -170.45703125 105.00390625 C-169.998125 104.3284375 -169.53921875 103.65296875 -169.06640625 102.95703125 C-168.4528125 102.065 -167.83921875 101.17296875 -167.20703125 100.25390625 C-166.60375 99.3721875 -166.00046875 98.49046875 -165.37890625 97.58203125 C-163.56561793 95.14957131 -161.65653856 93.08662556 -159.45703125 91.00390625 C-146.45703125 107.97164819 -146.45703125 107.97164819 -146.45703125 114.00390625 C-145.56846436 113.66246582 -144.67989746 113.32102539 -143.7644043 112.96923828 C-140.33188018 111.65074757 -136.89846895 110.33457836 -133.46490479 109.01879883 C-131.92065181 108.42655829 -130.37666457 107.83362438 -128.83294678 107.23999023 C-120.69243576 104.10966539 -112.54809875 101.00615536 -104.328125 98.08984375 C-102.48504761 97.43024658 -102.48504761 97.43024658 -100.60473633 96.75732422 C-98.30324895 95.9384292 -95.99720998 95.13218591 -93.6862793 94.34033203 C-86.29163613 91.85260186 -86.29163613 91.85260186 -81.45703125 86.00390625 C-80.97994644 83.57238686 -80.97994644 83.57238686 -81.20703125 81.19140625 C-81.243125 80.40121094 -81.27921875 79.61101562 -81.31640625 78.796875 C-81.3628125 78.20519531 -81.40921875 77.61351562 -81.45703125 77.00390625 C-82.11703125 77.00390625 -82.77703125 77.00390625 -83.45703125 77.00390625 C-84.01390625 76.26140625 -84.01390625 76.26140625 -84.58203125 75.50390625 C-87.08981906 73.497676 -89.30935858 73.45878834 -92.45703125 73.59765625 C-96.03082268 74.32358264 -97.400063 76.09995107 -99.45703125 79.00390625 C-100.33270727 81.65118116 -100.87400425 84.2681642 -101.45703125 87.00390625 C-102.11703125 87.66390625 -102.77703125 88.32390625 -103.45703125 89.00390625 C-105.45703125 88.94140625 -105.45703125 88.94140625 -107.45703125 88.00390625 C-109.58188227 84.81662972 -109.45785953 83.01112415 -109.01953125 79.19140625 C-107.3060072 73.32759343 -103.17169651 68.67446949 -98.01953125 65.50390625 C-91.24748731 64.18253182 -85.54098049 64.74697411 -79.45703125 68.00390625 C-74.31343115 72.14114981 -72.79924181 75.92401121 -72.08203125 82.37890625 C-72.62721938 87.64905818 -74.17770064 91.82104896 -78.06816101 95.54684448 C-83.46925228 99.6876826 -88.9734114 102.09372432 -95.3515625 104.38671875 C-96.37956467 104.76827118 -97.40756683 105.14982361 -98.46672058 105.54293823 C-101.72986808 106.75078033 -104.9994144 107.94008026 -108.26953125 109.12890625 C-110.45292239 109.93368027 -112.63586969 110.73965951 -114.81835938 111.546875 C-118.85256096 113.03619767 -122.88884234 114.5194624 -126.92895508 115.99267578 C-127.83376617 116.32640198 -128.73857727 116.66012817 -129.67080688 117.00396729 C-131.62229787 117.70433151 -133.58592206 118.3713694 -135.5574646 119.01312256 C-136.5538797 119.34507629 -137.5502948 119.67703003 -138.5769043 120.01904297 C-139.93153023 120.45275711 -139.93153023 120.45275711 -141.31352234 120.89523315 C-143.59578263 121.81067099 -143.59578263 121.81067099 -144.43367004 123.93460083 C-144.8627643 125.89489079 -144.8627643 125.89489079 -145.0859375 127.97265625 C-145.75557704 131.63805165 -147.82748493 133.43551217 -150.45703125 136.00390625 C-154.74510769 138.62439741 -159.57162789 138.55631935 -164.45703125 138.00390625 C-169.81458221 136.08327477 -172.91540341 133.08716193 -175.45703125 128.00390625 C-175.76054914 122.96015306 -175.76567025 117.91130251 -174.45703125 113.00390625 C-178.15312004 109.27816968 -182.15423907 109.61340981 -187.08203125 109.56640625 C-197.95667383 109.19639496 -206.3522844 106.56833664 -214.45703125 99.00390625 C-221.7081977 91.07859507 -224.42785008 82.68421567 -224.45703125 72.00390625 C-223.81270503 61.97482864 -219.97137445 53.96550331 -212.58203125 47.12890625 C-208.71938725 43.98679392 -203.60108997 40.00390625 -198.45703125 40.00390625 C-198.23015625 39.44703125 -198.00328125 38.89015625 -197.76953125 38.31640625 C-194.34706949 32.28635457 -188.62992503 28.24817832 -182.26953125 25.75390625 C-176.39710025 24.59867392 -170.19352844 24.09174052 -164.45703125 26.00390625 C-164.41578125 25.34390625 -164.37453125 24.68390625 -164.33203125 24.00390625 C-162.13781659 16.48088455 -156.07848279 10.86927865 -149.45703125 7.00390625 C-140.1269395 2.49972402 -132.26569421 1.68726429 -122.33203125 4.56640625 C-117.19069242 6.38564922 -114.05499483 8.91231409 -110.1796875 12.65234375 C-108.43661128 14.3139424 -108.43661128 14.3139424 -105.51953125 13.94140625 C-104.50890625 13.63203125 -103.49828125 13.32265625 -102.45703125 13.00390625 C-91.55258647 11.92822601 -83.40346517 15.38063759 -74.80859375 21.9296875 C-71.99943836 24.40753054 -70.3677371 26.8193965 -68.45703125 30.00390625 C-67.46703125 30.00390625 -66.47703125 30.00390625 -65.45703125 30.00390625 C-65.31007813 29.18148437 -65.163125 28.3590625 -65.01171875 27.51171875 C-62.66616067 15.83784924 -58.01135211 6.4279792 -48.45703125 -0.99609375 C-32.32002858 -10.62793279 -15.67937173 -10.5929747 0 0 Z " fill="#7D7D7D" transform="translate(351.45703125,204.99609375)"/>
<path d="M0 0 C4.17376033 2.2679337 6.49457533 4.32348507 8.26171875 8.75390625 C9.64880134 14.41044873 9.54025108 19.24126823 7.3125 24.625 C6.8175 25.40875 6.3225 26.1925 5.8125 27 C5.1525 27 4.4925 27 3.8125 27 C3.8125 27.66 3.8125 28.32 3.8125 29 C-3.98874777 33.17607267 -12.04091573 36.34305218 -20.33984375 39.37890625 C-21.68943647 39.87735149 -23.03884393 40.37629863 -24.38807678 40.87571716 C-27.9148008 42.17958822 -31.4440152 43.47658009 -34.97381592 44.77209473 C-38.54077237 46.08269442 -42.10521258 47.40010037 -45.66992188 48.71679688 C-58.98915889 53.63352123 -58.98915889 53.63352123 -64.88180542 55.78005981 C-67.05550691 56.58224699 -69.22173384 57.40504072 -71.37918091 58.24996948 C-72.35305756 58.62630524 -73.3269342 59.00264099 -74.33032227 59.39038086 C-75.1759523 59.72589462 -76.02158234 60.06140839 -76.89283752 60.40708923 C-79.41905004 61.0598295 -80.75608454 60.86081603 -83.1875 60 C-83.9375 58.25 -83.9375 58.25 -84.1875 56 C-80.8723425 51.53598068 -76.34771984 50.2820336 -71.296875 48.53125 C-70.41150055 48.21385864 -69.5261261 47.89646729 -68.61392212 47.56945801 C-65.72530986 46.53608831 -62.83151436 45.51813087 -59.9375 44.5 C-56.94773213 43.43471217 -53.95939714 42.36547408 -50.97116089 41.29589844 C-48.9608099 40.57653441 -46.9500043 39.85843961 -44.93875122 39.14160156 C-35.0803468 35.62290581 -25.28450256 31.94481208 -15.50427246 28.21508789 C-13.61575763 27.49511402 -11.72588614 26.77870164 -9.8359375 26.0625 C-8.78583496 25.66160156 -7.73573242 25.26070313 -6.65380859 24.84765625 C-4.1875 24 -4.1875 24 -2.1875 24 C-2.1875 23.34 -2.1875 22.68 -2.1875 22 C-1.5275 22 -0.8675 22 -0.1875 22 C0.25400715 16.94719594 0.56637044 13.24023847 -2.125 8.8125 C-5.86180682 6.60092046 -7.90617834 6.60002848 -12.09765625 7.3671875 C-15.19749707 8.30583089 -16.48082775 9.2266576 -18.1875 12 C-18.78735024 14.7044972 -19.00204444 17.21816666 -19.1875 20 C-20.8375 20.66 -22.4875 21.32 -24.1875 22 C-25.6875 20.9375 -25.6875 20.9375 -27.1875 19 C-27.96901227 13.30612488 -26.54784098 8.60782542 -23.1875 4 C-22.1975 3.67 -21.2075 3.34 -20.1875 3 C-20.1875 2.34 -20.1875 1.68 -20.1875 1 C-12.80659211 -2.10775069 -7.61664294 -3.300917 0 0 Z " fill="#7D7D7D" transform="translate(312.1875,274)"/>
<path d="M0 0 C4.99967204 3.99973763 7.53575763 7.55528528 8.67578125 13.8515625 C8.9208372 18.15054398 7.98270192 21.54313337 5.8125 25.25 C2.0435123 29.42560048 -1.65285281 32.93364603 -7.45703125 33.453125 C-13.58134633 33.5660156 -17.99089327 33.20644716 -22.6953125 28.85546875 C-24.125 27.3125 -24.125 27.3125 -26.1875 24.25 C-26 21.875 -26 21.875 -25.1875 20.25 C-23.0625 19.4375 -23.0625 19.4375 -20.1875 19.25 C-18.73069637 20.51256314 -17.27619564 21.77866485 -15.859375 23.0859375 C-12.62275433 25.33947246 -10.017299 24.79711414 -6.1875 24.25 C-3.04005481 23.01546291 -3.04005481 23.01546291 -1.1875 20.25 C-0.29535134 15.9471591 -0.40288422 12.50538525 -2.75 8.75 C-5.88083801 6.82333045 -8.55462653 6.16205691 -12.1875 6.25 C-15.91223411 7.14026513 -19.42438091 8.49854604 -22.9921875 9.87890625 C-24.02957062 10.26561996 -25.06695374 10.65233368 -26.13577271 11.05076599 C-29.45043883 12.28993926 -32.75645179 13.5505372 -36.0625 14.8125 C-38.24683766 15.63494752 -40.43172922 16.45592554 -42.6171875 17.27539062 C-43.68543762 17.67631927 -44.75368774 18.07724792 -45.85430908 18.49032593 C-46.91043396 18.88668243 -47.96655884 19.28303894 -49.0546875 19.69140625 C-51.14164157 20.47531669 -53.22855655 21.25933119 -55.31542969 22.04345703 C-56.30506714 22.41480774 -57.29470459 22.78615845 -58.31433105 23.16876221 C-60.17515669 23.86903255 -62.0347036 24.57271419 -63.8927002 25.28045654 C-66.28069261 26.1880583 -68.67425788 27.07879334 -71.0703125 27.96484375 C-71.7593869 28.23148331 -72.4484613 28.49812286 -73.15841675 28.77284241 C-75.05908203 29.46459961 -75.05908203 29.46459961 -78.1875 30.25 C-79.1775 29.59 -80.1675 28.93 -81.1875 28.25 C-81.31469727 25.51953125 -81.31469727 25.51953125 -80.1875 22.25 C-77.07670345 20.23469221 -73.64129219 19.14401246 -70.15234375 17.9375 C-69.12629532 17.56069092 -68.10024689 17.18388184 -67.04310608 16.7956543 C-63.74502147 15.59038655 -60.43581154 14.41979601 -57.125 13.25 C-54.95164577 12.46322149 -52.77910832 11.67418283 -50.60742188 10.8828125 C-46.39914182 9.35219456 -42.18600352 7.83636792 -37.96826172 6.33203125 C-31.7383444 4.10283161 -25.56131544 1.74700013 -19.39672852 -0.65625 C-12.49960452 -3.0068864 -6.56517281 -3.6044086 0 0 Z " fill="#7D7D7D" transform="translate(302.1875,325.75)"/>
<path d="M0 0 C1 1 1 1 1.35546875 3.3671875 C1 6 1 6 -1.01171875 7.6953125 C-1.89472656 8.16710937 -2.77773438 8.63890625 -3.6875 9.125 C-4.55761719 9.60195312 -5.42773438 10.07890625 -6.32421875 10.5703125 C-7.20722656 11.04210937 -8.09023438 11.51390625 -9 12 C-9.87785156 12.54914063 -10.75570313 13.09828125 -11.66015625 13.6640625 C-14.35353425 15.20185094 -15.94666664 15.33925926 -19 15 C-20 14 -20 14 -20.4609375 11.703125 C-20 9 -20 9 -17.2265625 6.796875 C-16.03689917 6.0958234 -14.83568502 5.41408883 -13.625 4.75 C-12.72007812 4.2240625 -12.72007812 4.2240625 -11.796875 3.6875 C-7.5261555 1.21997318 -4.95854708 -0.25428447 0 0 Z " fill="#7D7D7D" transform="translate(383,202)"/>
<path d="M0 0 C0.83265381 0.00523682 1.66530762 0.01047363 2.52319336 0.01586914 C3.42231445 0.0190918 4.32143555 0.02231445 5.24780273 0.02563477 C6.66609375 0.03820312 6.66609375 0.03820312 8.11303711 0.05102539 C9.06243164 0.05553711 10.01182617 0.06004883 10.98999023 0.06469727 C13.34356776 0.07652429 15.69702188 0.09300514 18.05053711 0.11352539 C18.71053711 1.43352539 19.37053711 2.75352539 20.05053711 4.11352539 C18.55053711 6.08618164 18.55053711 6.08618164 16.05053711 8.11352539 C13.22421056 8.48742484 10.86029783 8.62992266 8.05053711 8.55102539 C7.33897461 8.55811523 6.62741211 8.56520508 5.89428711 8.57250977 C1.67987682 8.52140218 -0.90028846 8.10711591 -3.94946289 5.11352539 C-2.83203617 0.16492133 -2.83203617 0.16492133 0 0 Z " fill="#7D7D7D" transform="translate(372.949462890625,232.886474609375)"/>
<path d="M0 0 C5.51476592 0.35801227 9.24440316 1.89006011 13.9375 4.75 C14.52595703 5.08515625 15.11441406 5.4203125 15.72070312 5.765625 C17.40234375 6.796875 17.40234375 6.796875 20 9 C20.44140625 11.703125 20.44140625 11.703125 20 14 C19.67 14.33 19.34 14.66 19 15 C13.48523408 14.64198773 9.75559684 13.10993989 5.0625 10.25 C4.47404297 9.91484375 3.88558594 9.5796875 3.27929688 9.234375 C1.59765625 8.203125 1.59765625 8.203125 -1 6 C-1.44140625 3.296875 -1.44140625 3.296875 -1 1 C-0.67 0.67 -0.34 0.34 0 0 Z " fill="#7D7D7D" transform="translate(270,202)"/>
<path d="M0 0 C2.625 0.375 2.625 0.375 5 1 C5.50911708 6.32552626 3.93873582 9.50060459 1.0625 13.8125 C0.68931641 14.39708984 0.31613281 14.98167969 -0.06835938 15.58398438 C-2.74312601 19.74312601 -2.74312601 19.74312601 -4 21 C-5.66617115 21.04063832 -7.33388095 21.042721 -9 21 C-10.12825599 17.06005844 -10.19345637 15.41079624 -8.41796875 11.640625 C-7.69175303 10.49924059 -6.94768176 9.3690493 -6.1875 8.25 C-5.81818359 7.67378906 -5.44886719 7.09757813 -5.06835938 6.50390625 C-3.52378785 4.12465604 -2.01002478 2.01002478 0 0 Z " fill="#7D7D7D" transform="translate(356,179)"/>
<path d="M0 0 C2.7890625 0.015625 2.7890625 0.015625 6 1 C7.79681604 3.29559775 9.05326125 5.20938155 10.375 7.75 C10.72949219 8.37132812 11.08398438 8.99265625 11.44921875 9.6328125 C13.39058203 13.18573216 14.55677618 15.9370387 14 20 C13 21 13 21 10.6328125 21.32421875 C8 21 8 21 6.3046875 19.20703125 C5.83289063 18.41683594 5.36109375 17.62664062 4.875 16.8125 C4.37484375 15.9875 3.8746875 15.1625 3.359375 14.3125 C2.91078125 13.549375 2.4621875 12.78625 2 12 C1.38125 11.113125 0.7625 10.22625 0.125 9.3125 C-1.29746103 6.38855233 -1.29184745 4.2103219 -1 1 C-0.67 0.67 -0.34 0.34 0 0 Z " fill="#7D7D7D" transform="translate(293,179)"/>
<path d="M0 0 C4.97548255 0.38386512 8.69577871 2.17817152 12.875 4.75 C13.46796875 5.08515625 14.0609375 5.4203125 14.671875 5.765625 C16.3671875 6.796875 16.3671875 6.796875 19 9 C19.4453125 11.703125 19.4453125 11.703125 19 14 C18.67 14.33 18.34 14.66 18 15 C12.45197245 14.67446031 8.60940491 12.9600694 4.0625 9.9375 C3.17981445 9.37192383 3.17981445 9.37192383 2.27929688 8.79492188 C0.84578537 7.87421123 -0.5781572 6.93863006 -2 6 C-1.125 1.125 -1.125 1.125 0 0 Z " fill="#7D7D7D" transform="translate(365,256)"/>
<path d="M0 0 C2.5 0.125 2.5 0.125 3.5 1.125 C3.58685603 2.68672745 3.60702219 4.25229344 3.59765625 5.81640625 C3.59443359 6.76064453 3.59121094 7.70488281 3.58789062 8.67773438 C3.57951172 9.67095703 3.57113281 10.66417969 3.5625 11.6875 C3.55798828 12.68458984 3.55347656 13.68167969 3.54882812 14.70898438 C3.53700007 17.18104849 3.52051849 19.65299518 3.5 22.125 C1.5085944 22.50633299 -0.49279077 22.83825582 -2.5 23.125 C-4.12200515 21.50299485 -3.6299075 19.70476969 -3.6328125 17.46875 C-3.63410156 16.52902344 -3.63539063 15.58929688 -3.63671875 14.62109375 C-3.63285156 13.63238281 -3.62898438 12.64367187 -3.625 11.625 C-3.62886719 10.63628906 -3.63273437 9.64757812 -3.63671875 8.62890625 C-3.63542969 7.68917969 -3.63414062 6.74945313 -3.6328125 5.78125 C-3.63168457 4.91306641 -3.63055664 4.04488281 -3.62939453 3.15039062 C-3.43571596 0.11877282 -3.05153971 0.15257699 0 0 Z " fill="#7D7D7D" transform="translate(326.5,170.875)"/>
</svg>
