<?xml version="1.0" encoding="UTF-8"?>
<svg version="1.1" xmlns="http://www.w3.org/2000/svg" width="512" height="512">
<path d="M0 0 C0.68803711 0.32983887 1.37607422 0.65967773 2.08496094 0.99951172 C39.25964426 18.97211355 67.87652215 51.75468571 81.69921875 90.57421875 C82.95244439 94.34366569 84.00567822 98.15387872 85 102 C85.29261719 103.07894531 85.58523438 104.15789062 85.88671875 105.26953125 C99.6769654 159.82509237 79.44867215 206.41483957 52.74951172 252.94677734 C50.89966454 256.175104 49.06036741 259.40928206 47.22265625 262.64453125 C35.0220835 284.09919757 22.52345751 305.37541727 9.95239258 326.61474609 C5.44707055 334.23076949 0.97181362 341.8642793 -3.5 349.5 C-8.99142069 358.87672232 -14.49883917 368.24362876 -20.03588867 377.59350586 C-23.13835467 382.83666857 -26.22561372 388.08845463 -29.30078125 393.34765625 C-29.67407562 393.9857724 -30.04737 394.62388855 -30.43197632 395.28134155 C-32.26119949 398.408485 -34.08895744 401.53646695 -35.9140625 404.66601562 C-37.92997364 408.11825596 -39.96099956 411.56133424 -42 415 C-42.35235718 415.59477142 -42.70471436 416.18954285 -43.06774902 416.80233765 C-44.12272217 418.57571178 -45.18676242 420.34330335 -46.25390625 422.109375 C-47.18505249 423.6577002 -47.18505249 423.6577002 -48.13500977 425.23730469 C-51.54386478 430.2869975 -55.52240867 433.81282082 -61 436.4375 C-67.93985786 437.73872335 -73.78685016 437.44616003 -80 434 C-86.44527513 429.57790541 -89.68070272 422.56171653 -93.3046875 415.875 C-96.40605892 410.18796957 -99.76968979 404.66470319 -103.125 399.125 C-108.35004482 390.47216823 -113.47267234 381.76914668 -118.5 373 C-123.40751407 364.44222657 -128.40115243 355.94517381 -133.5 347.5 C-139.29104425 337.90645723 -144.93616726 328.23747107 -150.515625 318.51953125 C-154.4621268 311.65030636 -158.45571817 304.81207557 -162.5 298 C-169.77718924 285.73024234 -176.91028745 273.37889342 -184 261 C-184.84328857 259.52829346 -184.84328857 259.52829346 -185.70361328 258.02685547 C-215.81587888 205.37734326 -236.33387912 157.54001669 -219.69433594 96.40527344 C-217.95629276 90.38445721 -215.68670208 84.66222462 -213 79 C-212.62101562 78.20094238 -212.24203125 77.40188477 -211.8515625 76.57861328 C-193.23771661 38.01413522 -160.9865474 7.27091143 -120.1875 -7 C-80.36990312 -18.87464918 -37.7414105 -18.50195674 0 0 Z " fill="#0488DB" transform="translate(324,45)"/>
<path d="M0 0 C1.16080078 -0.020625 2.32160156 -0.04125 3.51757812 -0.0625 C12.9179352 -0.10434911 23.50585657 0.04085559 31.0625 6.25 C32.94326958 7.19718931 34.8407896 8.11153084 36.75 9 C42.47529946 11.80679315 47.20042374 15.16249635 52.0625 19.25 C52.88105469 19.87777344 53.69960938 20.50554687 54.54296875 21.15234375 C65.37227026 30.16836687 73.1538742 43.10928694 74.87109375 57.08203125 C74.96583984 58.15517578 74.96583984 58.15517578 75.0625 59.25 C75.7225 59.25 76.3825 59.25 77.0625 59.25 C79.22183673 74.84324314 78.51234797 88.43299722 73.0625 103.25 C72.70236816 104.2387915 72.70236816 104.2387915 72.33496094 105.24755859 C70.97613277 108.94227709 69.5517694 112.60604297 68.0625 116.25 C67.4025 116.25 66.7425 116.25 66.0625 116.25 C65.83820313 116.95382813 65.61390625 117.65765625 65.3828125 118.3828125 C63.78038024 121.8626506 61.54389891 124.37829713 58.9375 127.125 C58.43814941 127.65456299 57.93879883 128.18412598 57.42431641 128.72973633 C55.98030535 130.24643562 54.52283473 131.7490418 53.0625 133.25 C52.11890625 134.24966797 52.11890625 134.24966797 51.15625 135.26953125 C36.84217837 149.16068712 16.46285374 153.97231144 -2.89160156 153.85961914 C-23.73961727 153.06145328 -41.65498818 144.35055042 -55.9375 129.25 C-63.9375 119.45952381 -63.9375 119.45952381 -63.9375 116.25 C-64.5975 116.25 -65.2575 116.25 -65.9375 116.25 C-66.19144531 115.58613281 -66.44539062 114.92226562 -66.70703125 114.23828125 C-67.05121094 113.35527344 -67.39539063 112.47226563 -67.75 111.5625 C-68.08644531 110.69238281 -68.42289063 109.82226562 -68.76953125 108.92578125 C-69.88186982 106.21513036 -69.88186982 106.21513036 -71.46875 103.7265625 C-78.82772557 91.31807711 -76.94203112 73.02306866 -74.9375 59.25 C-74.2775 59.25 -73.6175 59.25 -72.9375 59.25 C-72.87433594 58.53457031 -72.81117188 57.81914062 -72.74609375 57.08203125 C-70.52396233 39.00089878 -58.51615763 25.48817676 -44.9375 14.25 C-40.16614999 10.56304772 -36.15362208 7.56877549 -29.9375 7.25 C-29.9375 6.59 -29.9375 5.93 -29.9375 5.25 C-27.8545757 4.60284867 -25.77114461 3.95732834 -23.6875 3.3125 C-22.52734375 2.95285156 -21.3671875 2.59320313 -20.171875 2.22265625 C-13.31860771 0.16170993 -7.15919773 0.03087525 0 0 Z " fill="#FDFEFE" transform="translate(254.9375,105.75)"/>
<path d="M0 0 C0.66 0.33 1.32 0.66 2 1 C-0.28356246 3.34138543 -2.57813374 5.67166982 -4.875 8 C-5.85146484 9.00160156 -5.85146484 9.00160156 -6.84765625 10.0234375 C-7.47285156 10.65507812 -8.09804687 11.28671875 -8.7421875 11.9375 C-9.3182373 12.52402344 -9.89428711 13.11054688 -10.48779297 13.71484375 C-12 15 -12 15 -14 15 C-11.16037299 8.62133045 -5.4725275 4.14585416 0 0 Z " fill="#C5E3F6" transform="translate(210,120)"/>
</svg>
