<?xml version="1.0" encoding="UTF-8"?>
<svg version="1.1" xmlns="http://www.w3.org/2000/svg" width="225" height="225">
<path d="M0 0 C74.25 0 148.5 0 225 0 C225 74.25 225 148.5 225 225 C150.75 225 76.5 225 0 225 C0 150.75 0 76.5 0 0 Z " fill="#FEFEFE" transform="translate(0,0)"/>
<path d="M0 0 C13.95368398 10.87021256 23.34041577 25.52701665 26.85546875 42.86328125 C27.25908187 46.6259547 27.33418689 50.33119465 27.29296875 54.11328125 C27.28394531 55.11689697 27.27492187 56.1205127 27.265625 57.15454102 C26.92298922 71.97234894 21.92184705 84.04131085 14.85546875 96.86328125 C14.38431641 97.71954102 13.91316406 98.57580078 13.42773438 99.45800781 C6.63693815 111.73100254 -0.43802269 123.83477266 -7.60546875 135.890625 C-10.2549542 140.3508715 -12.8807547 144.82438115 -15.49609375 149.3046875 C-15.87076782 149.94605652 -16.24544189 150.58742554 -16.63146973 151.24822998 C-18.86522425 155.07215989 -18.86522425 155.07215989 -21.09484863 158.89849854 C-24.6504445 165.00729066 -28.23808165 171.09516328 -31.96484375 177.1015625 C-32.50641113 177.97466064 -33.04797852 178.84775879 -33.60595703 179.74731445 C-35.14453125 181.86328125 -35.14453125 181.86328125 -38.14453125 183.86328125 C-41.51953125 184.30078125 -41.51953125 184.30078125 -45.14453125 183.86328125 C-50.02491087 179.87683255 -52.79549861 174.77794071 -55.89453125 169.36328125 C-57.0468579 167.38150047 -58.19920258 165.39973018 -59.3515625 163.41796875 C-59.96338379 162.35932617 -60.57520508 161.30068359 -61.20556641 160.20996094 C-63.21854649 156.73552993 -65.2467595 153.27045145 -67.28125 149.80859375 C-67.9937348 148.59611066 -68.70621852 147.38362693 -69.41870117 146.17114258 C-69.7748349 145.56509186 -70.13096863 144.95904114 -70.49789429 144.33462524 C-72.66966461 140.6359827 -74.8352819 136.93373674 -77.00163269 133.23191833 C-79.32786136 129.2572179 -81.65743239 125.28449374 -83.98828125 121.3125 C-87.39188591 115.50656515 -90.77674796 109.69006414 -94.14453125 103.86328125 C-94.64130371 103.00573242 -95.13807617 102.14818359 -95.64990234 101.26464844 C-105.72119201 83.80592986 -105.72119201 83.80592986 -108.14453125 74.86328125 C-108.31678223 74.23212402 -108.4890332 73.6009668 -108.66650391 72.95068359 C-112.1164439 59.15399569 -111.93076052 42.94519091 -106.14453125 29.86328125 C-105.70882812 28.84234375 -105.273125 27.82140625 -104.82421875 26.76953125 C-96.26109793 8.23949932 -80.95961856 -3.91415297 -62.14453125 -11.13671875 C-40.69715289 -17.51609378 -18.14670641 -12.33074336 0 0 Z " fill="#0588DB" transform="translate(154.14453125,27.13671875)"/>
<path d="M0 0 C8.48168712 4.72503436 15.31393663 11.25654197 18.4765625 20.6171875 C20.69840688 31.50422494 19.49670924 42.26103868 13.359375 51.5703125 C7.75742111 58.5844256 0.40052924 62.300084 -8.015625 65.10546875 C-19.86678137 66.03467253 -27.88972413 64.16831127 -37.1640625 56.796875 C-43.96883427 50.58070163 -47.525041 43.67147732 -48.33203125 34.515625 C-48.57141882 26.78572301 -48.16928604 20.70705542 -44.015625 14.10546875 C-43.61472656 13.42097656 -43.21382813 12.73648438 -42.80078125 12.03125 C-33.84922666 -1.5906809 -14.91815905 -6.15807728 0 0 Z " fill="#FCFDFE" transform="translate(127.015625,48.89453125)"/>
</svg>
