<svg xmlns="http://www.w3.org/2000/svg" width="20" height="20.001" viewBox="0 0 20 20.001">
  <g id="Group_32398" data-name="Group 32398" transform="translate(-4263.303 -1498.799)">
    <path id="Path_85691" data-name="Path 85691" d="M35.528-472.519a6.27,6.27,0,0,0-.741.1c-.162.036-.391.081-.517.094a2.393,2.393,0,0,0-.382.09c-.085.036-.368.13-.629.211a6.765,6.765,0,0,0-.674.242,16.177,16.177,0,0,0-1.451.768,3.146,3.146,0,0,1-.328.2,2.027,2.027,0,0,0-.278.2,10.239,10.239,0,0,0-2.241,2.313,3.621,3.621,0,0,1-.247.323.27.27,0,0,0-.081.139.558.558,0,0,1-.1.2,9.446,9.446,0,0,0-.786,1.63,11.878,11.878,0,0,0-.472,1.752,6.641,6.641,0,0,0-.1,1.729,6.323,6.323,0,0,0,.144,1.909,8.139,8.139,0,0,0,.391,1.433.577.577,0,0,1,.072.2,14.7,14.7,0,0,0,.764,1.594c.04.063.153.229.243.364a7.974,7.974,0,0,0,.584.809,10.741,10.741,0,0,0,2.115,1.954c.148.094.355.229.463.3a3.189,3.189,0,0,0,.337.193,1.444,1.444,0,0,1,.211.112,8.948,8.948,0,0,0,1.707.7,3.07,3.07,0,0,1,.337.108,12.38,12.38,0,0,0,1.46.279c.184.022.822.031,1.415.022a8.444,8.444,0,0,0,3.3-.606,9.475,9.475,0,0,0,1.222-.552.447.447,0,0,1,.153-.085.927.927,0,0,0,.193-.1c.552-.368.678-.449.876-.588a10.284,10.284,0,0,0,2.645-2.924c.157-.274.377-.705.588-1.146a11,11,0,0,0,.75-2.83,18.214,18.214,0,0,0-.049-2.74c-.031-.112-.09-.4-.135-.629a10.09,10.09,0,0,0-1.06-2.74,5.108,5.108,0,0,0-.409-.656,9.973,9.973,0,0,0-2.888-2.834,11.911,11.911,0,0,0-3.279-1.356c-.162-.022-.431-.076-.606-.112A14.307,14.307,0,0,0,35.528-472.519ZM37.2-471.4a10.438,10.438,0,0,1,1.4.22,1.638,1.638,0,0,0,.319.09,9.4,9.4,0,0,1,1.882.777.41.41,0,0,0,.148.081.566.566,0,0,1,.184.1c.081.054.175.121.216.143a8.736,8.736,0,0,1,1.828,1.594c.139.162.265.305.287.319a.583.583,0,0,1,.117.139c.04.063.157.234.252.377s.211.314.252.377a4.337,4.337,0,0,1,.22.4c.081.162.166.323.189.359a7.289,7.289,0,0,1,.557,1.46,3.888,3.888,0,0,0,.112.4,7.225,7.225,0,0,1,.139.8,7.133,7.133,0,0,1,.072,1.442,7.717,7.717,0,0,1-.216,1.783,1.451,1.451,0,0,0-.085.314,4.178,4.178,0,0,1-.13.463c-.049.121-.144.373-.211.557a9.629,9.629,0,0,1-.714,1.4,9.286,9.286,0,0,1-2.089,2.282,7.961,7.961,0,0,1-2.089,1.2,5.925,5.925,0,0,1-.979.333,1.405,1.405,0,0,0-.278.072,6.752,6.752,0,0,1-1.7.229,8.836,8.836,0,0,1-6.095-2.048,9.984,9.984,0,0,1-1.617-1.778.186.186,0,0,0-.072-.117.509.509,0,0,1-.117-.153c-.022-.049-.1-.193-.171-.314s-.207-.377-.3-.562-.193-.4-.229-.471a9.766,9.766,0,0,1-.6-2.178,9.809,9.809,0,0,1,.139-3.212c.045-.148.1-.359.13-.472a5.611,5.611,0,0,1,.337-.965.616.616,0,0,0,.072-.193,13.141,13.141,0,0,1,.813-1.451,10.269,10.269,0,0,1,1.639-1.792c.054-.036.243-.18.427-.319a10.8,10.8,0,0,1,1.029-.669c.076-.045.615-.3.876-.409a5.2,5.2,0,0,1,.921-.314,1.663,1.663,0,0,0,.337-.1,10.837,10.837,0,0,1,1.922-.251C36.57-471.436,36.961-471.418,37.2-471.4Z" transform="translate(4236.803 1971.342)" fill="#ff1f1f"/>
    <path id="Path_85694" data-name="Path 85694" d="M206.854-425.563a2.074,2.074,0,0,0-1.145.8,1.931,1.931,0,0,0-.211,1.8,3.226,3.226,0,0,0,.274.517,2.5,2.5,0,0,0,.889.651.3.3,0,0,1,.157.081,7.741,7.741,0,0,1,.031.88,6.988,6.988,0,0,0,.04.889c.027.041.171.059.463.059a3.243,3.243,0,0,0,.431-.014s.018-.413.031-.907l.027-.9.247-.126a2.16,2.16,0,0,0,.858-.719,1.413,1.413,0,0,0,.175-.319.528.528,0,0,1,.076-.184,1.433,1.433,0,0,0,.09-.516,1.283,1.283,0,0,0-.1-.692,2.016,2.016,0,0,0-1.029-1.163,1.3,1.3,0,0,0-.692-.144A4.808,4.808,0,0,0,206.854-425.563Z" transform="translate(4065.97 1926.488)" fill="#ff1f1f"/>
    <path id="Path_85693" data-name="Path 85693" d="M180.844-315.588c-.117.067-.3.166-.4.225a3.65,3.65,0,0,0-.921.934,1.783,1.783,0,0,0-.157.278,1,1,0,0,1-.085.193,3.162,3.162,0,0,0-.162,1.747c.072.144.126.162.216.09.031-.027.18-.126.328-.22l.274-.175.036-.305a2.358,2.358,0,0,1,1.037-1.779.69.69,0,0,0,.225-.234,2.791,2.791,0,0,0,.009-.476c-.013-.346-.022-.382-.1-.391A.892.892,0,0,0,180.844-315.588Z" transform="translate(4091.101 1821.543)" fill="#ff1f1f"/>
    <path id="Path_85697" data-name="Path 85697" d="M270.031-315.967a1.752,1.752,0,0,0-.031.445v.413l.184.148a2.448,2.448,0,0,1,1.091,1.787l.049.377.355.22c.449.279.49.251.512-.278a4.314,4.314,0,0,0-.171-1.284.878.878,0,0,1-.108-.225,2.681,2.681,0,0,0-.665-.925,2.248,2.248,0,0,0-.853-.575.2.2,0,0,1-.126-.067A.179.179,0,0,0,270.031-315.967Z" transform="translate(4004.239 1821.828)" fill="#ff1f1f"/>
    <path id="Path_85695" data-name="Path 85695" d="M211.195-288.676a1.566,1.566,0,0,0-1.047.961,1.257,1.257,0,0,0-.148.683,1.723,1.723,0,0,0,1.015,1.594,1.263,1.263,0,0,0,.746.157,1.313,1.313,0,0,0,.6-.09,1.118,1.118,0,0,1,.238-.09,1.884,1.884,0,0,0,.382-.328,1.277,1.277,0,0,0,.427-.638,1.969,1.969,0,0,0,.036-1.109,2.066,2.066,0,0,1-.117-.278,1.885,1.885,0,0,0-.9-.831A1.726,1.726,0,0,0,211.195-288.676Z" transform="translate(4061.544 1795.826)" fill="#ff1f1f"/>
    <path id="Path_85692" data-name="Path 85692" d="M95.061-232.568c-.09.063-.283.175-.427.252s-.377.207-.512.292a1.148,1.148,0,0,1-.346.157,1.073,1.073,0,0,1-.368-.184,2.323,2.323,0,0,0-1.069-.355,2.931,2.931,0,0,0-.476.072,1.968,1.968,0,0,0-1.064,3.158,2.24,2.24,0,0,0,.772.557,1.317,1.317,0,0,0,.737.121,1.312,1.312,0,0,0,.808-.157,1.99,1.99,0,0,0,.939-.88,1.294,1.294,0,0,0,.184-.867c.009-.512.013-.534.135-.66a.591.591,0,0,1,.247-.153.424.424,0,0,0,.18-.094.711.711,0,0,1,.193-.135,4.148,4.148,0,0,0,.79-.494,5,5,0,0,0-.287-.535C95.376-232.693,95.272-232.711,95.061-232.568Z" transform="translate(4175.805 1742.232)" fill="#ff1f1f"/>
    <path id="Path_85698" data-name="Path 85698" d="M287.386-232.894a1.077,1.077,0,0,0-.1.171c-.036.072-.112.216-.175.314a.982.982,0,0,0-.112.211,1.837,1.837,0,0,0,.436.305,4.037,4.037,0,0,1,.4.224,3.451,3.451,0,0,0,.413.225.548.548,0,0,1,.166.135c.121.126.126.148.135.638a1.4,1.4,0,0,0,.135.777,1.926,1.926,0,0,0,1.074,1.024,1.317,1.317,0,0,0,.723.121,1.317,1.317,0,0,0,.723-.121,1.867,1.867,0,0,0,1.186-1.473,1.909,1.909,0,0,0-1.5-2.246,1.88,1.88,0,0,0-1.509.278c-.135.094-.274.184-.3.2-.054.036-.274-.072-1.015-.508C287.552-232.921,287.454-232.961,287.386-232.894Z" transform="translate(3988.003 1742.482)" fill="#ff1f1f"/>
    <path id="Path_85696" data-name="Path 85696" d="M203.613-209.071a1.777,1.777,0,0,0-.373.261c-.058.184.8.665,1.356.763a3.306,3.306,0,0,0,2.156-.274c.418-.216.539-.305.611-.436.031-.063-.027-.112-.373-.31l-.409-.234-.17.094a1.98,1.98,0,0,1-1.118.3,1.528,1.528,0,0,1-.737-.126,3.21,3.21,0,0,1-.4-.193C204.021-209.314,204.008-209.309,203.613-209.071Z" transform="translate(4068.004 1719.922)" fill="#ff1f1f"/>
  </g>
</svg>
