<svg xmlns="http://www.w3.org/2000/svg" width="10.119" height="14.92" viewBox="0 0 10.119 14.92">
  <path id="Path_85703" data-name="Path 85703" d="M24.328,19.806c-1.543-2.3-4.844-7-4.844-9.744a5.059,5.059,0,1,1,10.119,0c0,2.744-3.3,7.445-4.847,9.748a.256.256,0,0,1-.427,0Zm.215-12.213a2.469,2.469,0,1,0,1.746,4.214A2.469,2.469,0,0,0,24.543,7.594Zm1.383,1.085a1.956,1.956,0,1,0,0,2.767,1.959,1.959,0,0,0,0-2.767ZM24.413,19.02l.131.192c1.453-2.143,4.547-6.655,4.547-9.15a4.547,4.547,0,1,0-9.094,0c0,2.446,2.985,6.846,4.416,8.957Z" transform="translate(-19.484 -5.003)" fill="#ff1f1f" fill-rule="evenodd"/>
</svg>
