<?xml version="1.0" encoding="UTF-8"?>
<svg version="1.1" xmlns="http://www.w3.org/2000/svg" width="379" height="355">
<path d="M0 0 C1.15211975 0.00223572 1.15211975 0.00223572 2.32751465 0.0045166 C14.06237859 0.04540463 25.3440386 0.65085759 36.8125 3.3125 C38.63974609 3.69535156 38.63974609 3.69535156 40.50390625 4.0859375 C63.40467148 9.47144647 85.56082072 20.54856978 103.8125 35.3125 C104.7096875 36.00730469 105.606875 36.70210937 106.53125 37.41796875 C123.15004549 50.52676002 135.97512182 66.23200007 146.8125 84.3125 C147.15522949 84.88129883 147.49795898 85.45009766 147.85107422 86.03613281 C162.45065647 110.67860625 169.27661398 139.52382803 169.125 168 C169.12350952 168.69738281 169.12201904 169.39476562 169.1204834 170.11328125 C169.07724231 181.41017781 168.2928266 192.27147306 165.8125 203.3125 C165.5956958 204.33802979 165.5956958 204.33802979 165.37451172 205.38427734 C159.59724587 232.44081916 146.73107878 258.20695225 128.20361328 278.765625 C126.80587725 280.31986429 125.43145003 281.89252567 124.05859375 283.46875 C118.18125926 290.13927384 111.87519898 295.89710651 104.8125 301.3125 C103.42804688 302.42044922 103.42804688 302.42044922 102.015625 303.55078125 C67.59366265 330.48364098 23.29479501 341.28090129 -19.859375 336.81640625 C-24.68228924 336.20006235 -29.43411178 335.32920814 -34.1875 334.3125 C-34.95642578 334.15152832 -35.72535156 333.99055664 -36.51757812 333.82470703 C-61.41916917 328.41967028 -84.41532867 317.34963764 -104.1875 301.3125 C-105.01628662 300.64395996 -105.01628662 300.64395996 -105.86181641 299.96191406 C-136.13467581 275.36890813 -156.47604029 242.33228152 -165.1875 204.3125 C-165.43306641 203.27416016 -165.43306641 203.27416016 -165.68359375 202.21484375 C-170.56501726 180.63169021 -170.37114325 154.80771628 -165.1875 133.3125 C-164.99414062 132.49491211 -164.80078125 131.67732422 -164.6015625 130.83496094 C-154.29597386 88.61067413 -128.95903643 50.89732864 -92.1875 27.3125 C-91.37023437 26.78269531 -90.55296875 26.25289062 -89.7109375 25.70703125 C-62.40424301 8.67459472 -32.13068352 -0.15461643 0 0 Z M-109.1875 72.3125 C-131.97056783 99.40587796 -144.67772243 132.54169638 -144.5 168 C-144.49817719 168.75328583 -144.49635437 169.50657166 -144.49447632 170.28268433 C-144.4497717 181.24376233 -144.01965206 191.66633803 -141.1875 202.3125 C-141.01589355 202.99441406 -140.84428711 203.67632812 -140.66748047 204.37890625 C-131.31776404 241.20960331 -108.01013103 273.4030619 -75.3203125 292.9296875 C-41.97294817 312.35487998 -2.62237012 319.40848427 35.23291016 309.99707031 C72.88193706 300.00578965 104.93959115 277.48138164 124.91015625 243.70703125 C144.14435489 209.38563779 151.27882271 168.77663421 140.8125 130.3125 C136.16140462 113.90077772 128.90089883 98.07683363 118.8125 84.3125 C118.23757813 83.52617188 117.66265625 82.73984375 117.0703125 81.9296875 C93.93964183 51.33751017 60.51227673 30.65404008 22.41064453 24.953125 C-26.67656724 18.43016548 -75.80738252 35.15689347 -109.1875 72.3125 Z " fill="#FA0202" transform="translate(191.1875,6.6875)"/>
<path d="M0 0 C1.57152832 0.00737183 1.57152832 0.00737183 3.17480469 0.01489258 C22.34078428 0.30282525 39.26430912 5.6555997 53.375 18.9375 C66.89004378 32.9771961 71.08709302 51.20466559 71.5 70.25 C71.05679014 90.8315578 66.0840102 109.52415874 51.30078125 124.51171875 C36.77710166 138.35878564 16.63732484 141.95880838 -2.7734375 141.49609375 C-22.33740818 140.5928456 -39.9810908 135.21827154 -53.6875 120.6796875 C-67.49742189 104.82966351 -71.437613 84.80406727 -70.67285156 64.23779297 C-69.67579124 49.86047419 -65.51594085 35.82925911 -56.75 24.3125 C-56.15445313 23.52359375 -55.55890625 22.7346875 -54.9453125 21.921875 C-41.36217152 5.35157024 -20.6406244 -0.11548841 0 0 Z M-21.75 42.3125 C-29.24622965 54.37359786 -29.39091964 71.23394958 -27 84.875 C-25.16102975 92.38628695 -22.20321823 100.03165963 -15.8359375 104.72265625 C-7.68731884 109.61455274 1.96349459 109.79475509 11.06640625 107.6484375 C17.42041887 105.17564071 21.37634962 100.93969497 24.46875 94.953125 C26.87717085 89.41375705 28.04327722 84.32468748 28.25 78.3125 C28.3015625 77.04148438 28.353125 75.77046875 28.40625 74.4609375 C28.74534999 62.12617536 28.50025326 49.31757415 19.82421875 39.73828125 C14.33324194 34.32593418 7.72658895 32.87207362 0.25 31.9375 C-8.69912845 33.05614106 -15.86214658 35.14407327 -21.75 42.3125 Z " fill="#FB0101" transform="translate(156.75,91.6875)"/>
<path d="M0 0 C1.04607422 -0.01998047 2.09214844 -0.03996094 3.16992188 -0.06054688 C10.7824519 -0.05576213 16.26030074 1.1564516 22.0859375 6.18359375 C26.28083228 11.43327422 28.54958724 15.34317961 28.30078125 22.3359375 C27.29852157 31.17553931 22.04866896 37.45631604 15.24072266 42.89208984 C11.92966674 45.41514514 8.56109446 47.84987224 5.16015625 50.25 C2.31687847 52.12655094 2.31687847 52.12655094 1.0625 53.4375 C1.87517334 53.46255615 2.68784668 53.4876123 3.52514648 53.51342773 C7.18360752 53.62899118 10.84178528 53.75189584 14.5 53.875 C16.4190918 53.93397461 16.4190918 53.93397461 18.37695312 53.99414062 C20.19936523 54.05698242 20.19936523 54.05698242 22.05859375 54.12109375 C23.18450928 54.15775146 24.3104248 54.19440918 25.47045898 54.23217773 C28.0625 54.4375 28.0625 54.4375 29.0625 55.4375 C29.16225032 57.94886104 29.20132183 60.42653415 29.1875 62.9375 C29.19330078 63.99130859 29.19330078 63.99130859 29.19921875 65.06640625 C29.18911378 70.31088622 29.18911378 70.31088622 28.0625 71.4375 C26.25194975 71.53126053 24.43772799 71.5549411 22.62475586 71.55102539 C20.88306374 71.55091209 20.88306374 71.55091209 19.10618591 71.55079651 C17.21090904 71.54305458 17.21090904 71.54305458 15.27734375 71.53515625 C13.99138809 71.5337413 12.70543243 71.53232635 11.38050842 71.53086853 C7.95606557 71.52704418 4.53166491 71.51721462 1.10723877 71.50616455 C-2.38488189 71.49594864 -5.87700934 71.49137053 -9.36914062 71.48632812 C-16.22527778 71.47559227 -23.08138687 71.45851684 -29.9375 71.4375 C-30.11694924 62.32809013 -26.06972532 55.3535653 -19.88208008 48.82128906 C-14.29782161 43.23069821 -8.25047423 38.40670818 -1.84765625 33.7890625 C2.20257057 30.51626177 5.5245457 27.39719068 6.9375 22.25 C7.23427927 19.35610778 7.23427927 19.35610778 6.0625 16.4375 C2.87622086 14.84436043 -0.46975515 15.0529862 -3.9375 15.4375 C-7.57728434 17.6213706 -7.49199368 20.10098105 -8.9375 24.4375 C-15.2075 24.1075 -21.4775 23.7775 -27.9375 23.4375 C-29.23818587 18.2347565 -28.274824 15.1841888 -25.9375 10.4375 C-19.00563221 1.12950228 -11.00581211 -0.07431795 0 0 Z " fill="#F80303" transform="translate(267.9375,176.5625)"/>
</svg>
