<svg xmlns="http://www.w3.org/2000/svg" width="23.181" height="22.967" viewBox="0 0 23.181 22.967">
  <path id="Path_85704" data-name="Path 85704" d="M24.554,13.652a2.434,2.434,0,0,0-2.383-1.927H11.01a2.434,2.434,0,0,0-2.383,1.927L7.576,18.593h18.03ZM8.864,17.735l.622-3.589a1.885,1.885,0,0,1,1.854-1.563h10.5A1.885,1.885,0,0,1,23.7,14.146l.622,3.589ZM8.825,28.467h-2.5A.468.468,0,0,1,5.859,28V26.32H9.293V28a.468.468,0,0,1-.468.468Zm18.03,0h-2.5A.468.468,0,0,1,23.888,28V26.32h3.434V28a.468.468,0,0,1-.468.468ZM25.4,19.022H7.8a2.352,2.352,0,0,0-2.37,2.352v2.8h8.156v-.588a1.129,1.129,0,0,1,1.129-1.129h3.752A1.129,1.129,0,0,1,19.6,23.586v.588h8.156v-2.8A2.352,2.352,0,0,0,25.4,19.022ZM8.657,22.886H6.511a.644.644,0,0,1,0-1.288H8.657a.644.644,0,0,1,0,1.288Zm18.03,0H24.541a.644.644,0,0,1,0-1.288h2.146a.644.644,0,0,1,0,1.288Zm1.193,3H5.309A.309.309,0,0,1,5,25.582v-.67a.309.309,0,0,1,.309-.309H27.872a.309.309,0,0,1,.309.309v.67a.309.309,0,0,1-.309.309ZM16.376,9.578V11.3H12.727a.859.859,0,0,1,0-1.717Zm4.937.859a.859.859,0,0,1-.859.859H16.805V9.578h3.649A.859.859,0,0,1,21.313,10.437ZM16.591,8.5a.215.215,0,0,1-.215-.215V5.715a.215.215,0,1,1,.429,0V8.29A.215.215,0,0,1,16.591,8.5Zm1.769-.052a.215.215,0,0,1-.15-.365l1.816-1.824a.216.216,0,0,1,.3.3l-1.824,1.82A.2.2,0,0,1,18.359,8.453Zm-3.537,0a.2.2,0,0,1-.15-.064L12.847,6.573a.219.219,0,1,1,.309-.309l1.82,1.824a.215.215,0,0,1-.15.365Z" transform="translate(-5 -5.5)" fill="#ff1f1f"/>
</svg>
